<?xml version="1.0" standalone="no"?>
<!DOCTYPE svg PUBLIC "-//W3C//DTD SVG 20010904//EN"
 "http://www.w3.org/TR/2001/REC-SVG-20010904/DTD/svg10.dtd">
<svg version="1.0" xmlns="http://www.w3.org/2000/svg"
 width="400.000000pt" height="400.000000pt" viewBox="0 0 400.000000 400.000000"
 preserveAspectRatio="xMidYMid meet">
<metadata>
Created by potrace 1.16, written by Peter Selinger 2001-2019
</metadata>
<g transform="translate(0.000000,400.000000) scale(0.100000,-0.100000)"
fill="#000000" stroke="none">
<path d="M0 2000 l0 -2000 2000 0 2000 0 0 2000 0 2000 -2000 0 -2000 0 0
-2000z m1307 1392 c21 -21 103 -99 183 -172 178 -164 199 -184 277 -260 34
-33 64 -60 67 -60 3 0 27 -22 53 -48 26 -27 107 -102 178 -167 72 -65 154
-142 184 -169 29 -28 75 -71 101 -96 26 -25 74 -70 107 -100 32 -31 114 -107
183 -170 69 -63 147 -136 173 -162 26 -27 51 -48 54 -48 3 0 23 -19 44 -41
l39 -42 41 39 c23 21 61 58 85 82 23 23 45 42 48 42 4 0 23 18 43 40 21 22 43
40 51 40 7 0 30 -16 50 -36 20 -19 74 -70 120 -113 l84 -77 -60 -62 c-33 -34
-62 -62 -64 -62 -2 0 -40 -34 -84 -76 -43 -41 -127 -119 -186 -172 l-106 -97
46 -46 c26 -25 106 -99 177 -164 72 -65 152 -140 178 -167 26 -26 50 -48 53
-48 3 0 32 -26 64 -57 33 -32 64 -62 70 -68 51 -48 68 -107 51 -171 -11 -42
-16 -48 -141 -165 -67 -62 -96 -83 -136 -95 -75 -22 -133 -5 -199 56 -27 26
-81 75 -120 110 -38 35 -92 85 -118 112 -26 26 -50 48 -53 48 -3 0 -32 26 -64
58 -66 64 -152 145 -192 181 l-27 24 -38 -33 c-21 -18 -89 -80 -151 -138
l-112 -105 0 -169 0 -168 -125 0 -125 0 0 93 c-1 98 -2 102 -62 155 l-26 24
-10 -34 c-5 -18 -22 -79 -37 -135 l-28 -103 -123 0 c-107 0 -123 2 -129 18 -4
9 -24 75 -45 147 -21 72 -49 168 -63 215 -14 47 -30 111 -37 142 -6 32 -13 58
-14 58 -1 0 -1 -130 2 -290 l5 -290 -117 0 -116 0 0 385 0 385 196 -2 196 -3
63 -225 c35 -124 67 -238 70 -255 5 -23 17 9 56 160 28 105 56 215 63 246 16
69 22 79 47 79 19 0 11 9 -174 180 -27 25 -75 71 -107 103 -33 31 -61 57 -64
57 -3 0 -27 22 -53 48 -26 27 -107 102 -178 168 -150 137 -184 169 -392 364
-32 31 -114 107 -183 170 -69 63 -147 136 -173 162 -26 27 -51 48 -54 48 -3 0
-31 27 -63 60 -32 33 -63 60 -69 60 -8 0 -11 119 -11 420 l0 420 444 0 444 0
39 -38z m-294 -2223 l57 -12 0 -109 0 -109 -32 18 c-23 12 -63 18 -133 21 -89
3 -105 1 -144 -20 -25 -13 -58 -40 -75 -61 -28 -35 -30 -45 -30 -110 0 -90 26
-136 96 -173 63 -32 191 -34 268 -4 l50 20 0 -103 0 -104 -37 -12 c-21 -8 -99
-16 -175 -18 -122 -5 -144 -3 -210 17 -121 38 -193 97 -242 200 -27 57 -30 76
-31 155 0 147 54 253 171 330 89 59 179 84 305 85 58 0 131 -5 162 -11z"/>
<path d="M750 3081 c0 -5 17 -24 38 -41 36 -32 226 -209 322 -300 84 -79 151
-142 285 -264 71 -66 152 -141 178 -168 26 -26 50 -48 53 -48 3 0 32 -26 64
-57 70 -68 79 -77 280 -263 201 -186 210 -195 280 -262 32 -32 61 -58 64 -58
2 0 31 -27 64 -60 34 -33 64 -60 68 -60 8 0 111 87 163 138 l34 33 -62 59
c-33 33 -63 60 -65 60 -3 0 -27 22 -53 48 -26 27 -106 102 -178 167 -153 140
-222 204 -280 263 -24 23 -46 42 -49 42 -2 0 -27 22 -53 48 -26 27 -106 102
-178 167 -153 140 -222 204 -280 263 -24 23 -45 42 -47 42 -3 0 -36 30 -74 66
-38 37 -101 95 -140 130 l-71 64 -182 0 c-100 0 -181 -4 -181 -9z"/>
</g>
</svg>
