<svg width="544" height="406" viewBox="0 0 544 406" fill="none" xmlns="http://www.w3.org/2000/svg">
<g clip-path="url(#clip0)">
<path d="M-90 1024L1912 1024L1912 -659L-90 -659L-90 1024Z" fill="white"/>
<path d="M1457.93 333.166C1459.19 332.914 1459.95 331.908 1459.95 330.651C1459.95 329.645 1459.7 328.891 1458.94 328.388C1457.94 327.885 1456.68 327.633 1455.42 327.633C1454.16 327.633 1452.65 327.634 1451.4 327.885V338.195H1453.66V334.171H1454.67C1455.92 334.171 1456.68 334.674 1456.93 335.68C1457.18 336.434 1457.43 337.44 1457.68 338.195H1460.2C1459.7 337.44 1459.44 336.434 1459.44 335.68C1459.7 334.674 1458.94 333.668 1457.93 333.166ZM1454.92 332.411H1453.66V329.394H1454.92C1456.43 329.394 1457.18 330.148 1457.18 330.902C1457.43 331.908 1456.17 332.663 1454.92 332.411ZM538.618 149.101C537.109 147.844 523.53 137.534 494.362 137.534C486.818 137.534 479.023 138.288 471.479 139.546C465.947 101.073 434.013 82.4654 432.755 81.4596L424.96 76.9335L419.931 84.2256C413.645 94.0324 408.867 105.096 406.101 116.412C400.821 138.288 404.09 158.908 415.154 176.509C401.826 184.053 380.201 185.813 375.675 186.065H18.6099C9.30607 186.065 1.76243 193.608 1.76243 202.912C1.25952 234.092 6.54007 265.273 17.3526 294.693C29.6739 326.879 48.0301 350.767 71.6668 365.352C98.3209 381.696 141.823 391 190.856 391C212.984 391 235.112 388.988 256.989 384.965C287.415 379.433 316.583 368.872 343.489 353.533C365.617 340.709 385.482 324.365 402.329 305.254C430.744 273.319 447.591 237.613 459.912 205.93H464.942C495.87 205.93 514.981 193.608 525.542 183.047C532.583 176.509 537.863 168.463 541.635 159.41L543.898 152.873L538.618 149.101Z" fill="#0091E2"/>
<path d="M51.8019 175.755H99.5782C101.841 175.755 103.853 173.995 103.853 171.48V128.733C103.853 126.47 102.093 124.458 99.5782 124.458H51.8019C49.5388 124.458 47.5272 126.218 47.5272 128.733V171.48C47.7786 173.995 49.5388 175.755 51.8019 175.755ZM117.683 175.755H165.459C167.722 175.755 169.734 173.995 169.734 171.48V128.733C169.734 126.47 167.974 124.458 165.459 124.458H117.683C115.42 124.458 113.408 126.218 113.408 128.733V171.48C113.66 173.995 115.42 175.755 117.683 175.755ZM184.821 175.755H232.598C234.861 175.755 236.872 173.995 236.872 171.48V128.733C236.872 126.47 235.112 124.458 232.598 124.458H184.821C182.558 124.458 180.547 126.218 180.547 128.733V171.48C180.547 173.995 182.307 175.755 184.821 175.755ZM250.954 175.755H298.73C300.993 175.755 303.005 173.995 303.005 171.48V128.733C303.005 126.47 301.245 124.458 298.73 124.458H250.954C248.691 124.458 246.679 126.218 246.679 128.733V171.48C246.679 173.995 248.691 175.755 250.954 175.755ZM117.683 114.652H165.459C167.722 114.652 169.734 112.64 169.734 110.377V67.6296C169.734 65.3665 167.974 63.3549 165.459 63.3549H117.683C115.42 63.3549 113.408 65.1151 113.408 67.6296V110.377C113.66 112.64 115.42 114.652 117.683 114.652ZM184.821 114.652H232.598C234.861 114.652 236.872 112.64 236.872 110.377V67.6296C236.872 65.3665 235.112 63.3549 232.598 63.3549H184.821C182.558 63.3549 180.547 65.1151 180.547 67.6296V110.377C180.547 112.64 182.307 114.652 184.821 114.652ZM250.954 114.652H298.73C300.993 114.652 303.005 112.64 303.005 110.377V67.6296C303.005 65.3665 300.993 63.3549 298.73 63.3549H250.954C248.691 63.3549 246.679 65.1151 246.679 67.6296V110.377C246.679 112.64 248.691 114.652 250.954 114.652ZM250.954 53.2967H298.73C300.993 53.2967 303.005 51.5366 303.005 49.022V6.27476C303.005 4.01167 300.993 2 298.73 2H250.954C248.691 2 246.679 3.76021 246.679 6.27476V49.022C246.679 51.2851 248.691 53.2967 250.954 53.2967ZM317.589 175.755H365.366C367.629 175.755 369.64 173.995 369.64 171.48V128.733C369.64 126.47 367.88 124.458 365.366 124.458H317.589C315.326 124.458 313.314 126.218 313.314 128.733V171.48C313.566 173.995 315.326 175.755 317.589 175.755Z" fill="#0091E2"/>
</g>
<defs>
<clipPath id="clip0">
<rect width="544" height="406" fill="white"/>
</clipPath>
</defs>
</svg>
