<svg id="svg" version="1.1" xmlns="http://www.w3.org/2000/svg" xmlns:xlink="http://www.w3.org/1999/xlink" width="400" height="400" viewBox="0, 0, 400,400"><g id="svgg"><path id="path0" d="M194.800 90.388 C 194.470 90.608,193.793 90.791,193.295 90.794 C 192.797 90.797,192.077 90.959,191.695 91.154 C 191.313 91.349,189.830 92.092,188.400 92.805 C 186.970 93.519,184.540 94.774,183.000 95.595 C 174.536 100.106,164.139 105.573,160.600 107.373 C 158.840 108.268,157.340 109.135,157.267 109.300 C 157.193 109.465,156.803 109.600,156.400 109.600 C 155.997 109.600,155.607 109.735,155.533 109.900 C 155.460 110.065,154.320 110.759,153.000 111.442 C 151.680 112.125,149.250 113.404,147.600 114.283 C 142.711 116.888,134.075 121.394,130.000 123.466 C 127.910 124.529,126.110 125.490,126.000 125.601 C 125.890 125.713,124.720 126.364,123.400 127.048 C 120.887 128.350,117.040 130.374,110.000 134.098 C 107.690 135.320,104.090 137.193,102.000 138.260 C 99.910 139.327,98.110 140.293,98.000 140.406 C 97.890 140.519,96.360 141.350,94.600 142.252 C 92.840 143.154,89.960 144.662,88.200 145.602 C 86.440 146.543,83.885 147.888,82.522 148.592 C 73.804 153.094,73.901 156.933,82.853 161.708 C 86.845 163.837,95.355 168.316,96.892 169.096 C 97.493 169.401,98.077 169.801,98.190 169.984 C 98.303 170.167,99.522 170.901,100.898 171.616 C 102.274 172.330,104.750 173.633,106.400 174.511 C 112.748 177.889,120.150 181.794,127.800 185.801 C 130.220 187.068,133.460 188.779,135.000 189.603 C 138.704 191.584,144.160 194.472,148.600 196.801 C 165.130 205.473,173.218 209.736,178.600 212.615 C 196.663 222.275,201.850 222.887,213.800 216.768 C 218.700 214.258,220.994 213.059,229.200 208.717 C 231.070 207.727,234.490 205.924,236.800 204.711 C 247.340 199.172,250.888 197.301,258.400 193.316 C 260.050 192.441,263.560 190.593,266.200 189.209 C 268.840 187.825,272.260 186.017,273.800 185.191 C 275.340 184.365,278.490 182.705,280.800 181.501 C 283.110 180.298,286.350 178.596,288.000 177.719 C 289.650 176.842,293.473 174.823,296.495 173.233 C 299.517 171.642,302.083 170.189,302.199 170.002 C 302.314 169.816,304.071 168.814,306.104 167.777 C 308.137 166.740,311.143 165.171,312.784 164.292 C 314.425 163.412,317.016 162.041,318.542 161.246 C 325.575 157.579,325.997 152.892,319.600 149.472 C 313.129 146.012,308.565 143.607,298.200 138.195 C 295.340 136.702,291.108 134.472,288.796 133.240 C 286.484 132.008,283.694 130.552,282.596 130.005 C 281.498 129.458,280.510 128.917,280.400 128.803 C 280.290 128.689,279.030 127.989,277.600 127.248 C 264.843 120.639,263.866 120.127,254.600 115.187 C 251.214 113.382,245.915 110.597,241.600 108.356 C 240.170 107.613,238.910 106.914,238.800 106.802 C 238.690 106.691,236.710 105.634,234.400 104.453 C 232.090 103.273,228.220 101.265,225.800 99.992 C 205.907 89.529,208.041 90.357,200.400 90.134 C 197.473 90.049,195.151 90.154,194.800 90.388 M167.933 124.566 C 171.876 126.552,171.887 126.581,169.786 129.712 C 168.804 131.177,168.000 132.496,168.000 132.643 C 168.000 132.945,171.167 132.605,174.200 131.978 C 179.180 130.950,180.406 131.020,183.177 132.493 C 187.134 134.596,187.063 134.707,181.200 135.583 C 176.052 136.352,173.071 136.835,171.069 137.224 C 170.008 137.431,168.715 137.600,168.197 137.600 C 167.237 137.600,166.413 138.504,164.916 141.200 C 160.315 149.483,161.219 148.836,157.228 146.711 C 153.466 144.707,153.565 144.996,155.609 141.986 C 158.369 137.922,158.408 137.957,152.400 139.142 C 151.410 139.338,149.382 139.705,147.894 139.957 L 145.188 140.417 141.912 138.731 L 138.637 137.044 139.818 136.540 C 140.468 136.263,141.465 136.028,142.033 136.018 C 142.602 136.008,144.042 135.833,145.233 135.629 C 146.425 135.425,148.570 135.072,150.000 134.845 C 159.992 133.255,158.596 133.997,161.560 128.700 C 163.784 124.727,164.113 124.166,164.492 123.700 C 165.021 123.048,164.816 122.997,167.933 124.566 M199.643 141.050 L 202.402 142.500 200.935 144.150 C 200.128 145.058,197.563 147.851,195.234 150.358 C 192.905 152.864,190.730 155.225,190.400 155.603 C 185.465 161.260,185.380 161.304,182.287 159.754 C 178.692 157.953,178.539 157.689,180.191 156.131 C 182.076 154.353,182.141 154.457,177.700 152.171 L 173.800 150.165 170.629 151.075 L 167.458 151.986 164.529 150.498 C 160.847 148.628,160.836 148.390,164.400 147.582 C 165.170 147.408,172.550 145.557,180.800 143.470 C 198.535 138.983,196.264 139.275,199.643 141.050 M187.600 146.199 C 186.610 146.498,184.765 147.038,183.500 147.400 C 180.690 148.203,180.650 148.508,183.187 149.793 C 185.736 151.085,185.364 151.196,188.548 148.192 C 191.540 145.369,191.391 145.055,187.600 146.199 M216.800 150.000 C 218.401 150.880,219.844 151.600,220.006 151.600 C 222.088 151.600,221.205 152.986,215.370 158.879 C 212.086 162.194,209.732 164.792,210.137 164.652 C 210.543 164.511,211.353 164.293,211.937 164.166 C 212.522 164.039,213.450 163.790,214.000 163.614 C 215.376 163.172,217.067 162.700,225.528 160.394 L 232.856 158.397 236.509 160.299 C 241.261 162.773,241.372 162.500,234.098 166.229 C 230.634 168.004,224.787 171.030,221.105 172.953 L 214.409 176.448 211.605 174.975 C 207.928 173.042,207.684 173.341,216.392 169.099 C 223.114 165.824,225.785 164.181,223.100 164.972 C 222.605 165.118,220.580 165.665,218.600 166.189 C 216.620 166.712,213.920 167.441,212.600 167.809 C 211.280 168.177,209.570 168.628,208.800 168.812 C 206.548 169.350,204.652 169.886,203.900 170.197 C 203.117 170.520,199.210 168.853,199.221 168.200 C 199.225 167.980,201.653 165.296,204.617 162.236 C 207.581 159.176,209.939 156.606,209.858 156.525 C 209.778 156.444,207.379 157.718,204.528 159.357 C 201.676 160.995,197.983 163.009,196.319 163.832 L 193.294 165.329 190.670 164.063 C 186.533 162.068,185.809 162.770,199.000 155.985 C 203.840 153.495,209.060 150.779,210.600 149.949 C 214.022 148.103,213.339 148.097,216.800 150.000 M247.883 166.100 C 249.266 166.815,250.395 167.490,250.392 167.600 C 250.381 168.103,249.649 168.678,247.800 169.637 C 246.700 170.207,242.380 172.443,238.200 174.605 C 228.907 179.412,229.207 178.877,234.339 181.501 C 238.327 183.541,239.991 184.620,239.576 184.900 C 236.023 187.296,235.166 187.241,229.463 184.248 C 226.788 182.845,223.271 181.030,221.646 180.216 C 217.818 178.298,216.561 179.293,234.507 170.040 C 238.415 168.025,242.195 166.034,242.907 165.617 C 244.673 164.579,245.003 164.611,247.883 166.100 M94.000 202.763 C 90.474 204.548,84.998 207.419,80.860 209.652 C 77.334 211.555,75.391 214.669,76.443 216.731 C 77.427 218.659,79.269 220.137,83.000 221.992 C 84.540 222.757,85.890 223.479,86.000 223.594 C 86.110 223.710,87.370 224.409,88.800 225.147 C 90.230 225.886,92.840 227.235,94.600 228.145 C 96.360 229.055,98.099 230.051,98.465 230.359 C 98.830 230.666,100.900 231.843,103.065 232.975 C 106.885 234.973,113.252 238.331,119.800 241.801 C 122.913 243.451,126.699 245.445,134.700 249.649 C 136.845 250.776,139.860 252.372,141.400 253.196 C 142.940 254.020,146.720 256.006,149.800 257.610 C 152.880 259.214,156.570 261.154,158.000 261.921 C 159.430 262.688,161.860 263.978,163.400 264.788 C 166.710 266.529,173.561 270.141,178.600 272.803 C 193.240 280.538,193.250 280.541,200.000 280.575 C 206.776 280.609,207.559 280.342,219.997 273.766 C 222.529 272.428,226.940 270.106,229.800 268.607 C 232.660 267.108,236.440 265.122,238.200 264.193 C 239.960 263.265,243.200 261.560,245.400 260.403 C 247.600 259.247,250.480 257.716,251.800 257.001 C 254.382 255.603,260.291 252.485,266.400 249.297 C 268.490 248.206,271.550 246.595,273.200 245.717 C 274.850 244.839,278.360 242.990,281.000 241.609 C 283.640 240.227,287.060 238.424,288.600 237.603 C 290.140 236.781,293.740 234.887,296.600 233.394 C 299.460 231.901,302.340 230.291,303.000 229.816 C 303.660 229.341,305.100 228.513,306.200 227.976 C 307.300 227.439,308.260 226.865,308.333 226.700 C 308.407 226.535,308.797 226.400,309.200 226.400 C 309.603 226.400,309.993 226.265,310.067 226.100 C 310.140 225.935,311.460 225.150,313.000 224.356 C 319.876 220.811,321.480 219.845,322.700 218.516 C 325.239 215.750,324.136 212.054,320.159 210.000 C 319.522 209.671,318.910 209.311,318.800 209.201 C 318.690 209.090,314.885 207.111,310.344 204.803 L 302.088 200.606 298.744 202.351 C 296.905 203.311,293.870 204.905,292.000 205.893 C 290.130 206.880,286.710 208.681,284.400 209.895 C 282.090 211.109,279.120 212.686,277.800 213.401 C 276.480 214.116,273.645 215.623,271.500 216.751 C 269.355 217.878,265.935 219.677,263.900 220.748 C 261.865 221.820,258.220 223.735,255.800 225.004 C 253.380 226.274,248.610 228.794,245.200 230.604 C 241.790 232.414,236.750 235.070,234.000 236.504 C 231.250 237.939,227.830 239.733,226.400 240.491 C 224.970 241.249,221.460 243.097,218.600 244.598 C 215.740 246.099,212.605 247.761,211.633 248.293 C 207.431 250.590,199.482 251.460,194.201 250.199 C 191.810 249.628,187.305 247.516,178.200 242.696 C 175.560 241.299,171.060 238.926,168.200 237.424 C 165.340 235.921,162.100 234.202,161.000 233.603 C 159.900 233.004,156.300 231.114,153.000 229.403 C 149.700 227.692,146.460 225.979,145.800 225.596 C 144.684 224.948,142.516 223.804,131.600 218.099 C 123.465 213.848,118.171 211.068,115.400 209.591 C 113.860 208.771,110.980 207.243,109.000 206.196 C 107.020 205.150,103.923 203.508,102.118 202.547 C 98.138 200.428,98.639 200.415,94.000 202.763 " stroke="none" fill="#e8296a" fill-rule="evenodd"></path><path id="path1" d="M-0.000 0.500 C -0.000 1.144,304.718 1.042,305.362 0.398 C 305.626 0.134,254.402 -0.000,152.880 -0.000 C 30.843 -0.000,-0.000 0.101,-0.000 0.500 M0.000 155.800 C 0.000 258.333,0.134 310.000,0.400 310.000 C 0.666 310.000,0.800 258.333,0.800 155.800 C 0.800 53.267,0.666 1.600,0.400 1.600 C 0.134 1.600,0.000 53.267,0.000 155.800 M131.332 50.300 C 164.515 50.356,218.695 50.356,251.732 50.300 C 284.770 50.244,257.620 50.197,191.400 50.197 C 125.180 50.197,98.150 50.244,131.332 50.300 M164.492 123.700 C 164.113 124.166,163.784 124.727,161.560 128.700 C 158.596 133.997,159.992 133.255,150.000 134.845 C 148.570 135.072,146.425 135.425,145.233 135.629 C 144.042 135.833,142.602 136.008,142.033 136.018 C 141.465 136.028,140.468 136.263,139.818 136.540 L 138.637 137.044 141.912 138.731 L 145.188 140.417 147.894 139.957 C 149.382 139.705,151.410 139.338,152.400 139.142 C 158.408 137.957,158.369 137.922,155.609 141.986 C 153.565 144.996,153.466 144.707,157.228 146.711 C 161.219 148.836,160.315 149.483,164.916 141.200 C 166.413 138.504,167.237 137.600,168.197 137.600 C 168.715 137.600,170.008 137.431,171.069 137.224 C 173.071 136.835,176.052 136.352,181.200 135.583 C 187.063 134.707,187.134 134.596,183.177 132.493 C 180.406 131.020,179.180 130.950,174.200 131.978 C 171.167 132.605,168.000 132.945,168.000 132.643 C 168.000 132.496,168.804 131.177,169.786 129.712 C 171.887 126.581,171.876 126.552,167.933 124.566 C 164.816 122.997,165.021 123.048,164.492 123.700 M180.800 143.470 C 172.550 145.557,165.170 147.408,164.400 147.582 C 160.836 148.390,160.847 148.628,164.529 150.498 L 167.458 151.986 170.629 151.075 L 173.800 150.165 177.700 152.171 C 182.141 154.457,182.076 154.353,180.191 156.131 C 178.539 157.689,178.692 157.953,182.287 159.754 C 185.380 161.304,185.465 161.260,190.400 155.603 C 190.730 155.225,192.905 152.864,195.234 150.358 C 197.563 147.851,200.128 145.058,200.935 144.150 L 202.402 142.500 199.643 141.050 C 196.264 139.275,198.535 138.983,180.800 143.470 M188.548 148.192 C 185.364 151.196,185.736 151.085,183.187 149.793 C 180.650 148.508,180.690 148.203,183.500 147.400 C 184.765 147.038,186.610 146.498,187.600 146.199 C 191.391 145.055,191.540 145.369,188.548 148.192 M210.600 149.949 C 209.060 150.779,203.840 153.495,199.000 155.985 C 185.809 162.770,186.533 162.068,190.670 164.063 L 193.294 165.329 196.319 163.832 C 197.983 163.009,201.676 160.995,204.528 159.357 C 207.379 157.718,209.778 156.444,209.858 156.525 C 209.939 156.606,207.581 159.176,204.617 162.236 C 201.653 165.296,199.225 167.980,199.221 168.200 C 199.210 168.853,203.117 170.520,203.900 170.197 C 204.652 169.886,206.548 169.350,208.800 168.812 C 209.570 168.628,211.280 168.177,212.600 167.809 C 213.920 167.441,216.620 166.712,218.600 166.189 C 220.580 165.665,222.605 165.118,223.100 164.972 C 225.785 164.181,223.114 165.824,216.392 169.099 C 207.684 173.341,207.928 173.042,211.605 174.975 L 214.409 176.448 221.105 172.953 C 224.787 171.030,230.634 168.004,234.098 166.229 C 241.372 162.500,241.261 162.773,236.509 160.299 L 232.856 158.397 225.528 160.394 C 217.067 162.700,215.376 163.172,214.000 163.614 C 213.450 163.790,212.522 164.039,211.937 164.166 C 211.353 164.293,210.543 164.511,210.137 164.652 C 209.732 164.792,212.086 162.194,215.370 158.879 C 221.205 152.986,222.088 151.600,220.006 151.600 C 219.844 151.600,218.401 150.880,216.800 150.000 C 213.339 148.097,214.022 148.103,210.600 149.949 M242.907 165.617 C 242.195 166.034,238.415 168.025,234.507 170.040 C 216.561 179.293,217.818 178.298,221.646 180.216 C 223.271 181.030,226.788 182.845,229.463 184.248 C 235.166 187.241,236.023 187.296,239.576 184.900 C 239.991 184.620,238.327 183.541,234.339 181.501 C 229.207 178.877,228.907 179.412,238.200 174.605 C 242.380 172.443,246.700 170.207,247.800 169.637 C 249.649 168.678,250.381 168.103,250.392 167.600 C 250.400 167.265,245.409 164.798,244.784 164.828 C 244.463 164.844,243.618 165.199,242.907 165.617 M92.600 172.948 C 77.823 180.521,76.000 181.821,76.000 184.789 C 76.000 185.629,77.880 188.800,78.378 188.800 C 78.527 188.800,78.998 189.115,79.425 189.501 C 79.851 189.886,81.100 190.648,82.200 191.195 C 83.300 191.742,84.290 192.282,84.400 192.395 C 84.510 192.508,87.570 194.110,91.200 195.955 C 94.830 197.801,98.070 199.522,98.400 199.780 C 98.730 200.037,100.620 201.046,102.600 202.021 C 104.580 202.995,106.260 203.929,106.333 204.096 C 106.407 204.263,106.812 204.400,107.233 204.400 C 107.655 204.400,108.001 204.535,108.001 204.700 C 108.002 204.865,108.992 205.450,110.200 206.000 C 111.408 206.550,112.398 207.090,112.400 207.200 C 112.402 207.310,113.392 207.850,114.600 208.400 C 115.808 208.950,116.798 209.535,116.799 209.700 C 116.799 209.865,117.124 210.000,117.520 210.000 C 117.916 210.000,118.411 210.163,118.620 210.361 C 118.971 210.694,123.244 212.946,133.400 218.148 C 135.600 219.275,137.460 220.333,137.533 220.499 C 137.607 220.664,137.997 220.800,138.400 220.800 C 138.803 220.800,139.193 220.935,139.267 221.100 C 139.340 221.265,140.165 221.805,141.100 222.300 C 142.035 222.795,143.565 223.605,144.500 224.100 C 145.435 224.595,146.260 225.135,146.333 225.300 C 146.407 225.465,146.812 225.600,147.233 225.600 C 147.655 225.600,148.000 225.780,148.000 226.000 C 148.000 226.220,148.345 226.400,148.767 226.400 C 149.188 226.400,149.593 226.536,149.667 226.701 C 149.740 226.867,151.960 228.064,154.600 229.362 C 157.240 230.660,159.460 231.874,159.533 232.061 C 159.607 232.247,160.012 232.400,160.433 232.400 C 160.855 232.400,161.200 232.580,161.200 232.800 C 161.200 233.020,161.545 233.200,161.967 233.200 C 162.388 233.200,162.793 233.336,162.867 233.502 C 162.940 233.668,164.260 234.429,165.800 235.194 C 167.340 235.958,168.690 236.680,168.800 236.797 C 168.910 236.915,169.900 237.456,171.000 238.000 C 172.100 238.544,173.090 239.096,173.200 239.227 C 173.310 239.357,173.985 239.719,174.700 240.030 C 175.415 240.341,176.000 240.731,176.000 240.898 C 176.000 241.064,176.360 241.200,176.800 241.200 C 177.240 241.200,177.600 241.380,177.600 241.600 C 177.600 241.820,177.960 242.000,178.400 242.000 C 178.840 242.000,179.200 242.180,179.200 242.400 C 179.200 242.620,179.560 242.800,180.000 242.800 C 180.440 242.800,180.800 242.980,180.800 243.200 C 180.800 243.420,181.149 243.600,181.576 243.600 C 182.003 243.600,182.447 243.753,182.563 243.940 C 182.866 244.430,190.635 248.229,193.000 249.043 C 195.480 249.897,204.522 250.009,207.000 249.217 C 209.395 248.450,223.682 241.265,223.933 240.700 C 224.007 240.535,224.412 240.400,224.833 240.400 C 225.255 240.400,225.600 240.220,225.600 240.000 C 225.600 239.780,225.960 239.600,226.400 239.600 C 226.840 239.600,227.200 239.420,227.200 239.200 C 227.200 238.980,227.545 238.800,227.967 238.800 C 228.388 238.800,228.793 238.665,228.867 238.500 C 228.940 238.335,229.900 237.752,231.000 237.205 C 232.100 236.658,233.090 236.118,233.200 236.005 C 233.433 235.766,234.899 234.989,242.800 230.915 C 245.990 229.270,248.771 227.762,248.980 227.562 C 249.189 227.363,249.684 227.200,250.080 227.200 C 250.476 227.200,250.800 227.054,250.800 226.875 C 250.800 226.696,251.430 226.302,252.200 226.000 C 252.970 225.698,253.600 225.304,253.600 225.125 C 253.600 224.946,253.960 224.800,254.400 224.800 C 254.840 224.800,255.200 224.620,255.200 224.400 C 255.200 224.180,255.560 224.000,256.000 224.000 C 256.440 224.000,256.800 223.820,256.800 223.600 C 256.800 223.380,257.160 223.200,257.600 223.200 C 258.040 223.200,258.400 223.020,258.400 222.800 C 258.400 222.580,258.760 222.400,259.200 222.400 C 259.640 222.400,260.000 222.241,260.000 222.047 C 260.000 221.852,260.315 221.587,260.700 221.457 C 261.085 221.327,262.660 220.504,264.200 219.629 C 265.740 218.754,268.350 217.361,270.000 216.533 C 271.650 215.705,273.060 214.886,273.133 214.714 C 273.207 214.541,273.539 214.400,273.872 214.400 C 274.204 214.400,274.954 214.079,275.538 213.686 C 276.122 213.293,278.400 212.078,280.600 210.986 C 282.800 209.894,284.660 208.865,284.733 208.700 C 284.807 208.535,285.212 208.400,285.633 208.400 C 286.055 208.400,286.400 208.220,286.400 208.000 C 286.400 207.780,286.745 207.600,287.167 207.600 C 287.588 207.600,287.993 207.465,288.067 207.300 C 288.234 206.924,290.364 205.625,291.300 205.329 C 291.685 205.207,292.000 204.948,292.000 204.753 C 292.000 204.559,292.360 204.400,292.800 204.400 C 293.240 204.400,293.600 204.220,293.600 204.000 C 293.600 203.780,293.960 203.600,294.400 203.600 C 294.840 203.600,295.201 203.465,295.201 203.300 C 295.202 203.135,296.192 202.550,297.400 202.000 C 298.608 201.450,299.598 200.865,299.599 200.700 C 299.599 200.535,299.960 200.400,300.400 200.400 C 300.840 200.400,301.201 200.265,301.203 200.100 C 301.205 199.935,301.610 199.598,302.103 199.352 C 303.266 198.771,310.246 195.105,311.800 194.258 C 312.460 193.899,313.315 193.604,313.700 193.602 C 314.085 193.601,314.401 193.465,314.403 193.300 C 314.405 193.135,314.810 192.802,315.303 192.560 C 317.711 191.378,319.813 190.170,319.933 189.900 C 320.007 189.735,320.339 189.600,320.673 189.600 C 321.595 189.600,323.535 187.311,324.039 185.628 C 325.076 182.167,323.393 180.862,307.928 173.135 C 302.477 170.411,302.826 170.462,300.000 171.990 C 298.790 172.644,296.450 173.853,294.800 174.676 C 293.150 175.499,291.740 176.314,291.667 176.486 C 291.593 176.659,291.203 176.800,290.800 176.800 C 290.397 176.800,290.007 176.935,289.933 177.100 C 289.860 177.265,288.720 177.951,287.400 178.624 C 284.874 179.912,276.672 184.221,271.600 186.924 C 269.950 187.803,266.800 189.437,264.600 190.554 C 262.400 191.671,260.510 192.678,260.400 192.792 C 260.290 192.907,259.390 193.420,258.400 193.934 C 255.703 195.334,246.783 200.000,241.800 202.618 C 237.477 204.889,234.458 206.483,228.700 209.539 C 209.570 219.688,209.395 219.769,204.469 220.768 C 199.925 221.689,191.553 220.438,188.600 218.397 C 188.380 218.245,185.860 216.892,183.000 215.392 C 180.140 213.891,176.450 211.951,174.800 211.081 C 173.150 210.210,170.000 208.558,167.800 207.410 C 163.693 205.266,158.734 202.642,153.800 200.003 C 149.538 197.723,143.361 194.466,132.600 188.824 C 130.620 187.786,127.380 186.076,125.400 185.023 C 123.420 183.971,120.000 182.160,117.800 180.998 C 115.600 179.837,112.540 178.217,111.000 177.399 C 104.316 173.848,97.643 170.403,97.526 170.444 C 97.457 170.468,95.240 171.595,92.600 172.948 M91.600 233.664 C 78.331 240.665,77.990 240.875,76.698 242.886 C 74.899 245.685,76.795 248.457,82.522 251.402 C 86.589 253.494,88.588 254.586,88.800 254.832 C 88.910 254.960,89.585 255.319,90.300 255.630 C 91.015 255.941,91.600 256.331,91.600 256.498 C 91.600 256.664,91.960 256.800,92.400 256.800 C 92.840 256.800,93.200 256.980,93.200 257.200 C 93.200 257.420,93.560 257.600,94.000 257.600 C 94.440 257.600,94.800 257.780,94.800 258.000 C 94.800 258.220,95.160 258.400,95.600 258.400 C 96.040 258.400,96.400 258.580,96.400 258.800 C 96.400 259.020,96.745 259.200,97.167 259.200 C 97.588 259.200,97.993 259.335,98.067 259.500 C 98.140 259.665,100.000 260.700,102.200 261.800 C 104.400 262.900,106.260 263.935,106.333 264.100 C 106.407 264.265,106.812 264.400,107.233 264.400 C 107.655 264.400,108.000 264.580,108.000 264.800 C 108.000 265.020,108.345 265.200,108.767 265.200 C 109.188 265.200,109.593 265.335,109.667 265.500 C 109.740 265.665,110.880 266.359,112.200 267.043 C 117.017 269.538,118.203 270.206,118.333 270.500 C 118.407 270.665,118.812 270.800,119.233 270.800 C 119.655 270.800,120.000 270.946,120.000 271.125 C 120.000 271.304,120.630 271.698,121.400 272.000 C 122.170 272.302,122.800 272.696,122.800 272.875 C 122.800 273.054,123.160 273.200,123.600 273.200 C 124.040 273.200,124.400 273.380,124.400 273.600 C 124.400 273.820,124.760 274.000,125.200 274.000 C 125.640 274.000,126.000 274.180,126.000 274.400 C 126.000 274.620,126.345 274.800,126.767 274.800 C 127.188 274.800,127.593 274.941,127.667 275.114 C 127.740 275.286,130.140 276.613,133.000 278.063 C 135.860 279.512,139.640 281.466,141.400 282.404 C 143.160 283.341,145.004 284.309,145.497 284.554 C 145.990 284.799,146.395 285.135,146.397 285.300 C 146.399 285.465,146.760 285.600,147.200 285.600 C 147.640 285.600,148.000 285.780,148.000 286.000 C 148.000 286.220,148.360 286.400,148.800 286.400 C 149.240 286.400,149.600 286.580,149.600 286.800 C 149.600 287.020,149.960 287.200,150.400 287.200 C 150.840 287.200,151.201 287.335,151.201 287.500 C 151.202 287.665,152.192 288.250,153.400 288.800 C 154.608 289.350,155.598 289.935,155.599 290.100 C 155.599 290.265,155.945 290.400,156.367 290.400 C 156.788 290.400,157.193 290.535,157.267 290.700 C 157.340 290.865,158.210 291.422,159.200 291.938 C 162.918 293.874,174.235 299.722,175.097 300.152 C 175.590 300.399,175.995 300.735,175.997 300.900 C 175.999 301.065,176.360 301.200,176.800 301.200 C 177.240 301.200,177.600 301.380,177.600 301.600 C 177.600 301.820,177.960 302.000,178.400 302.000 C 178.840 302.000,179.200 302.180,179.200 302.400 C 179.200 302.620,179.560 302.800,180.000 302.800 C 180.440 302.800,180.800 302.980,180.800 303.200 C 180.800 303.420,181.160 303.600,181.600 303.600 C 182.040 303.600,182.400 303.780,182.400 304.000 C 182.400 304.220,182.760 304.400,183.200 304.400 C 183.640 304.400,184.000 304.580,184.000 304.800 C 184.000 305.020,184.360 305.200,184.800 305.200 C 185.240 305.200,185.600 305.346,185.600 305.525 C 185.600 305.704,186.230 306.098,187.000 306.400 C 187.770 306.702,188.400 307.096,188.400 307.275 C 188.400 307.454,188.760 307.600,189.200 307.600 C 189.640 307.600,190.000 307.780,190.000 308.000 C 190.000 308.220,190.360 308.400,190.800 308.400 C 191.240 308.400,191.600 308.580,191.600 308.800 C 191.600 309.020,192.140 309.200,192.800 309.200 C 193.460 309.200,194.000 309.380,194.000 309.600 C 194.000 309.849,196.259 310.000,199.976 310.000 C 203.529 310.000,206.053 309.838,206.200 309.600 C 206.336 309.380,207.067 309.200,207.824 309.200 C 208.581 309.200,209.200 309.054,209.200 308.875 C 209.200 308.696,209.830 308.302,210.600 308.000 C 211.370 307.698,212.000 307.304,212.000 307.125 C 212.000 306.946,212.360 306.800,212.800 306.800 C 213.240 306.800,213.600 306.620,213.600 306.400 C 213.600 306.180,213.960 306.000,214.400 306.000 C 214.840 306.000,215.200 305.820,215.200 305.600 C 215.200 305.380,215.560 305.200,216.000 305.200 C 216.440 305.200,216.800 305.048,216.800 304.863 C 216.800 304.677,217.655 304.092,218.700 303.563 C 219.745 303.033,220.660 302.465,220.733 302.300 C 220.807 302.135,221.212 302.000,221.633 302.000 C 222.055 302.000,222.400 301.820,222.400 301.600 C 222.400 301.380,222.760 301.200,223.200 301.200 C 223.640 301.200,224.000 301.020,224.000 300.800 C 224.000 300.580,224.360 300.400,224.800 300.400 C 225.240 300.400,225.600 300.220,225.600 300.000 C 225.600 299.780,225.960 299.600,226.400 299.600 C 226.840 299.600,227.200 299.464,227.200 299.298 C 227.200 299.131,227.785 298.741,228.500 298.430 C 229.215 298.119,229.890 297.758,230.000 297.628 C 230.432 297.118,237.560 293.600,238.161 293.600 C 238.513 293.600,238.800 293.420,238.800 293.200 C 238.800 292.980,239.160 292.800,239.600 292.800 C 240.040 292.800,240.400 292.620,240.400 292.400 C 240.400 292.180,240.760 292.000,241.200 292.000 C 241.640 292.000,242.000 291.820,242.000 291.600 C 242.000 291.380,242.360 291.200,242.800 291.200 C 243.240 291.200,243.600 291.020,243.600 290.800 C 243.600 290.580,243.870 290.400,244.200 290.400 C 244.530 290.400,244.800 290.254,244.800 290.075 C 244.800 289.896,245.430 289.502,246.200 289.200 C 246.970 288.898,247.600 288.538,247.600 288.400 C 247.600 288.262,248.230 287.902,249.000 287.600 C 249.770 287.298,250.400 286.904,250.400 286.725 C 250.400 286.546,250.760 286.400,251.200 286.400 C 251.640 286.400,252.000 286.220,252.000 286.000 C 252.000 285.780,252.360 285.600,252.800 285.600 C 253.240 285.600,253.600 285.420,253.600 285.200 C 253.600 284.980,253.960 284.800,254.400 284.800 C 254.840 284.800,255.200 284.620,255.200 284.400 C 255.200 284.180,255.560 284.000,256.000 284.000 C 256.440 284.000,256.800 283.820,256.800 283.600 C 256.800 283.380,257.160 283.200,257.600 283.200 C 258.040 283.200,258.400 283.041,258.400 282.847 C 258.400 282.652,258.715 282.390,259.100 282.264 C 259.485 282.138,260.610 281.549,261.600 280.955 C 264.674 279.110,268.567 277.215,269.300 277.207 C 269.685 277.203,270.000 277.020,270.000 276.800 C 270.000 276.580,270.360 276.400,270.800 276.400 C 271.240 276.400,271.600 276.220,271.600 276.000 C 271.600 275.780,271.878 275.600,272.217 275.600 C 272.556 275.600,273.220 275.240,273.692 274.800 C 274.164 274.360,274.787 274.000,275.075 274.000 C 275.364 274.000,275.600 273.820,275.600 273.600 C 275.600 273.380,275.960 273.200,276.400 273.200 C 276.840 273.200,277.200 273.020,277.200 272.800 C 277.200 272.580,277.560 272.400,278.000 272.400 C 278.440 272.400,278.800 272.254,278.800 272.075 C 278.800 271.896,279.430 271.502,280.200 271.200 C 280.970 270.898,281.600 270.504,281.600 270.325 C 281.600 270.146,281.960 270.000,282.400 270.000 C 282.840 270.000,283.200 269.820,283.200 269.600 C 283.200 269.380,283.560 269.200,284.000 269.200 C 284.440 269.200,284.800 269.020,284.800 268.800 C 284.800 268.580,285.160 268.400,285.600 268.400 C 286.040 268.400,286.400 268.220,286.400 268.000 C 286.400 267.780,286.760 267.600,287.200 267.600 C 287.640 267.600,288.000 267.455,288.000 267.279 C 288.000 267.102,288.897 266.517,289.994 265.979 C 291.090 265.440,291.990 264.865,291.994 264.700 C 291.997 264.535,292.360 264.400,292.800 264.400 C 293.240 264.400,293.600 264.220,293.600 264.000 C 293.600 263.780,293.945 263.600,294.367 263.600 C 294.788 263.600,295.193 263.459,295.267 263.286 C 295.340 263.114,296.840 262.291,298.600 261.458 C 300.360 260.624,302.250 259.674,302.800 259.347 C 303.350 259.019,304.115 258.651,304.500 258.529 C 304.885 258.407,305.200 258.148,305.200 257.953 C 305.200 257.759,305.560 257.600,306.000 257.600 C 306.440 257.600,306.800 257.420,306.800 257.200 C 306.800 256.980,307.160 256.800,307.600 256.800 C 308.040 256.800,308.400 256.620,308.400 256.400 C 308.400 256.180,308.760 256.000,309.200 256.000 C 309.640 256.000,310.000 255.854,310.000 255.675 C 310.000 255.496,310.630 255.102,311.400 254.800 C 312.170 254.498,312.800 254.104,312.800 253.925 C 312.800 253.746,313.160 253.600,313.600 253.600 C 314.040 253.600,314.400 253.420,314.400 253.200 C 314.400 252.980,314.760 252.800,315.200 252.800 C 315.640 252.800,316.001 252.665,316.003 252.500 C 316.005 252.335,316.410 252.002,316.903 251.760 C 324.478 248.040,326.355 244.193,322.155 240.994 C 320.589 239.801,303.391 230.800,302.678 230.800 C 302.599 230.800,300.569 231.853,298.167 233.140 C 293.364 235.713,285.178 240.001,280.200 242.550 C 278.440 243.451,276.910 244.282,276.800 244.397 C 276.690 244.511,275.520 245.154,274.200 245.824 C 272.880 246.495,269.730 248.136,267.200 249.472 C 264.670 250.808,260.620 252.945,258.200 254.222 C 255.780 255.500,252.360 257.274,250.600 258.166 C 248.840 259.059,247.310 259.882,247.200 259.997 C 247.090 260.111,245.920 260.758,244.600 261.434 C 243.280 262.110,240.130 263.754,237.600 265.087 C 235.070 266.420,231.020 268.546,228.600 269.812 C 226.180 271.078,222.580 272.965,220.600 274.006 C 206.779 281.273,207.560 281.009,200.000 280.971 C 193.907 280.941,191.946 280.502,188.000 278.284 C 186.715 277.562,185.168 276.741,175.800 271.810 C 174.040 270.884,170.845 269.198,168.700 268.063 C 164.749 265.973,160.969 263.981,153.000 259.789 C 150.580 258.516,147.430 256.848,146.000 256.083 C 143.381 254.680,140.321 253.076,130.400 247.907 C 127.430 246.359,124.460 244.777,123.800 244.392 C 123.140 244.006,120.530 242.615,118.000 241.300 C 111.895 238.128,106.211 235.138,101.750 232.752 C 97.241 230.340,98.036 230.269,91.600 233.664 " stroke="none" fill="#e6e4e5" fill-rule="evenodd"></path><path id="path2" d="M70.000 53.638 C 62.340 54.836,56.336 59.195,53.248 65.800 C 52.733 66.900,52.152 68.113,51.956 68.495 C 51.760 68.877,51.600 69.710,51.600 70.346 C 51.600 70.982,51.330 71.726,51.000 72.000 C 50.088 72.757,50.088 326.478,51.000 328.662 C 51.330 329.451,51.600 330.378,51.600 330.720 C 51.600 335.912,60.281 344.325,67.532 346.159 C 71.264 347.103,328.618 347.146,332.280 346.203 C 340.859 343.995,346.620 338.009,348.746 329.094 C 349.650 325.301,349.342 66.818,348.434 67.379 C 348.292 67.467,347.557 66.343,346.799 64.882 C 344.220 59.906,339.022 55.646,333.473 53.958 C 330.784 53.140,75.166 52.829,70.000 53.638 M58.229 55.029 C 57.805 55.338,57.536 55.669,57.630 55.763 C 57.724 55.857,58.148 55.681,58.571 55.371 C 58.995 55.062,59.264 54.731,59.170 54.637 C 59.076 54.543,58.652 54.719,58.229 55.029 M203.600 89.387 C 209.133 90.185,207.157 89.299,228.800 100.686 C 230.890 101.786,234.490 103.676,236.800 104.886 C 239.110 106.097,242.440 107.858,244.200 108.800 C 245.960 109.743,249.020 111.365,251.000 112.404 C 252.980 113.444,256.130 115.104,258.000 116.092 C 259.870 117.080,263.650 119.065,266.400 120.502 C 269.150 121.939,272.210 123.539,273.200 124.058 C 274.190 124.576,275.060 125.135,275.133 125.300 C 275.207 125.465,275.597 125.600,276.000 125.600 C 276.403 125.600,276.793 125.735,276.867 125.900 C 276.940 126.065,278.440 126.933,280.200 127.828 C 281.960 128.723,285.380 130.500,287.800 131.778 C 290.220 133.055,294.270 135.192,296.800 136.528 C 299.330 137.864,302.480 139.505,303.800 140.176 C 305.120 140.846,306.290 141.489,306.400 141.603 C 306.510 141.718,308.040 142.545,309.800 143.442 C 322.607 149.967,325.200 151.855,325.200 154.657 C 325.200 155.024,325.640 155.902,326.179 156.608 C 327.517 158.362,327.744 159.560,327.051 161.205 C 325.968 163.772,324.384 164.940,316.200 169.202 C 309.396 172.746,309.048 173.120,311.500 174.260 C 312.325 174.644,313.090 175.058,313.200 175.179 C 313.310 175.301,315.251 176.345,317.514 177.500 C 321.951 179.766,323.897 181.397,324.790 183.600 C 325.103 184.370,325.682 185.540,326.078 186.200 C 326.860 187.506,327.008 189.415,326.439 190.874 C 325.569 193.106,323.677 194.418,312.722 200.388 C 309.767 201.999,308.961 202.608,309.334 202.951 C 310.002 203.563,311.769 204.584,314.400 205.879 C 315.610 206.475,316.690 207.063,316.800 207.187 C 316.910 207.310,317.900 207.858,319.000 208.405 C 320.100 208.952,321.349 209.714,321.775 210.099 C 322.202 210.485,322.673 210.800,322.822 210.800 C 323.397 210.800,325.201 214.038,325.213 215.091 C 325.220 215.701,325.490 216.549,325.813 216.976 C 328.422 220.426,325.307 223.475,312.043 230.455 C 307.618 232.784,307.681 232.440,311.334 234.326 C 323.019 240.356,325.503 242.340,325.142 245.351 C 325.086 245.818,325.256 246.593,325.520 247.074 C 327.876 251.364,325.815 253.055,305.400 263.571 C 302.760 264.931,299.880 266.447,299.000 266.939 C 297.451 267.806,291.470 270.971,282.800 275.513 C 280.490 276.724,278.420 277.847,278.200 278.010 C 277.846 278.272,273.163 280.756,258.800 288.302 C 256.490 289.516,254.420 290.642,254.200 290.805 C 253.980 290.968,252.000 292.049,249.800 293.208 C 247.600 294.367,244.720 295.896,243.400 296.606 C 241.034 297.879,238.874 299.030,231.000 303.217 C 228.800 304.387,225.560 306.127,223.800 307.084 C 209.480 314.871,203.266 316.364,195.007 314.002 C 191.886 313.109,192.314 313.298,181.600 308.099 C 172.290 303.582,168.415 301.761,164.400 300.020 C 160.953 298.525,160.754 298.432,158.600 297.303 C 157.720 296.841,155.650 295.884,154.000 295.175 C 152.350 294.466,149.896 293.391,148.547 292.786 C 147.198 292.181,145.353 291.561,144.447 291.408 C 143.541 291.255,142.800 291.009,142.800 290.862 C 142.800 290.555,139.919 289.600,138.992 289.600 C 138.281 289.600,137.771 290.038,132.594 295.100 C 130.513 297.135,128.690 298.800,128.544 298.800 C 128.117 298.800,124.841 295.663,106.600 277.789 C 97.140 268.520,88.140 259.809,86.600 258.431 C 85.060 257.054,81.955 254.028,79.700 251.707 L 75.600 247.488 75.600 245.349 C 75.600 243.169,75.919 242.515,77.943 240.546 C 78.461 240.042,79.406 239.399,80.043 239.117 C 80.679 238.835,81.200 238.469,81.200 238.302 C 81.200 238.136,81.524 238.000,81.920 238.000 C 82.316 238.000,82.811 237.831,83.020 237.625 C 83.229 237.419,85.560 236.133,88.200 234.768 C 90.840 233.402,93.576 231.979,94.279 231.604 L 95.559 230.923 92.679 229.406 C 84.511 225.103,82.808 224.119,80.604 222.433 C 77.685 220.199,77.593 220.112,76.487 218.538 C 74.905 216.287,75.564 212.289,77.780 210.699 C 78.625 210.092,81.871 208.232,84.600 206.790 C 86.140 205.977,88.390 204.770,89.600 204.109 C 90.810 203.448,92.565 202.490,93.500 201.979 C 95.774 200.738,95.790 200.763,91.100 198.379 C 84.378 194.963,81.963 193.391,78.700 190.311 L 75.600 187.385 75.600 185.165 C 75.600 182.278,77.157 180.345,81.065 178.380 C 82.569 177.623,83.860 176.868,83.933 176.702 C 84.007 176.536,84.397 176.400,84.800 176.400 C 85.203 176.400,85.593 176.265,85.667 176.100 C 85.821 175.753,88.523 174.255,92.800 172.146 L 95.800 170.667 89.600 167.467 C 84.042 164.599,80.443 162.346,80.067 161.500 C 79.993 161.335,79.750 161.200,79.527 161.200 C 79.304 161.200,78.329 160.361,77.360 159.336 C 73.419 155.164,75.224 151.330,83.000 147.355 C 85.200 146.231,88.440 144.541,90.200 143.601 C 91.960 142.661,94.840 141.154,96.600 140.252 C 98.360 139.350,99.890 138.516,100.000 138.400 C 100.110 138.284,101.640 137.457,103.400 136.564 C 106.347 135.067,110.845 132.713,119.600 128.084 C 121.470 127.096,124.440 125.547,126.200 124.643 C 127.960 123.740,129.460 122.865,129.533 122.700 C 129.607 122.535,130.012 122.400,130.433 122.400 C 130.855 122.400,131.200 122.264,131.200 122.098 C 131.200 121.931,131.728 121.562,132.374 121.276 C 133.019 120.990,135.494 119.715,137.874 118.442 C 143.336 115.520,151.421 111.295,156.600 108.655 C 158.800 107.533,160.690 106.522,160.800 106.408 C 160.910 106.293,161.810 105.780,162.800 105.266 C 163.790 104.753,166.760 103.198,169.400 101.811 C 175.148 98.790,182.411 95.005,187.564 92.344 C 189.634 91.275,191.629 90.400,191.997 90.400 C 192.366 90.400,192.800 90.265,192.964 90.100 C 193.199 89.863,197.269 89.090,199.400 88.878 C 199.620 88.857,201.510 89.085,203.600 89.387 " stroke="none" fill="#09bdd3" fill-rule="evenodd"></path><path id="path3" d="M66.200 50.800 C 66.064 51.020,65.603 51.200,65.176 51.200 C 64.749 51.200,64.400 51.350,64.400 51.533 C 64.400 51.717,64.130 51.897,63.800 51.933 C 63.470 51.970,62.938 52.030,62.618 52.067 C 62.297 52.103,62.128 52.283,62.241 52.467 C 62.355 52.650,62.167 52.800,61.824 52.800 C 61.481 52.800,61.200 52.991,61.200 53.224 C 61.200 53.457,61.031 53.543,60.824 53.415 C 60.617 53.287,60.212 53.469,59.924 53.819 C 59.636 54.170,59.044 54.759,58.608 55.128 C 56.936 56.546,53.509 60.128,53.417 60.554 C 53.204 61.540,52.700 62.385,52.425 62.215 C 52.264 62.116,52.114 62.252,52.090 62.518 C 52.002 63.499,51.749 64.385,51.478 64.655 C 51.325 64.808,51.200 65.433,51.200 66.043 C 51.200 66.653,51.020 67.264,50.800 67.400 C 50.580 67.536,50.400 68.739,50.400 70.073 C 50.400 72.183,50.478 72.433,51.000 72.000 C 51.330 71.726,51.600 70.982,51.600 70.346 C 51.600 69.710,51.760 68.877,51.956 68.495 C 52.152 68.113,52.733 66.900,53.248 65.800 C 56.378 59.104,62.440 54.769,70.277 53.621 C 76.261 52.745,330.553 53.070,333.473 53.958 C 339.030 55.648,344.085 59.799,346.926 65.004 C 348.400 67.703,348.445 67.745,348.237 66.210 C 347.488 60.689,338.467 51.200,333.967 51.200 C 333.571 51.200,333.136 51.020,333.000 50.800 C 332.657 50.245,66.543 50.245,66.200 50.800 M91.000 173.028 C 89.680 173.777,87.925 174.704,87.100 175.089 C 86.275 175.474,85.600 175.926,85.600 176.094 C 85.600 176.262,85.240 176.400,84.800 176.400 C 84.360 176.400,84.000 176.580,84.000 176.800 C 84.000 177.389,92.424 173.214,93.780 171.953 C 94.562 171.226,93.348 171.695,91.000 173.028 M80.800 178.439 C 78.442 179.692,75.599 182.489,75.601 183.551 C 75.602 183.922,75.959 183.616,76.433 182.839 C 77.517 181.061,78.507 180.236,81.300 178.784 C 82.565 178.126,83.600 177.501,83.600 177.394 C 83.600 177.042,83.025 177.256,80.800 178.439 M318.400 178.132 C 318.400 178.242,319.210 178.784,320.200 179.338 C 321.190 179.891,322.000 180.210,322.000 180.046 C 322.000 179.882,321.325 179.405,320.500 178.985 C 318.374 177.902,318.400 177.913,318.400 178.132 M361.100 191.865 C 362.169 192.296,361.483 193.536,358.587 196.410 C 355.605 199.369,355.576 199.419,355.687 201.293 L 355.800 203.186 359.900 199.100 C 362.155 196.853,364.000 194.821,364.000 194.586 C 364.000 194.044,361.492 191.589,360.981 191.632 C 360.771 191.649,360.825 191.754,361.100 191.865 M88.400 234.641 C 85.650 236.075,83.229 237.418,83.020 237.624 C 82.811 237.831,82.316 238.000,81.920 238.000 C 81.524 238.000,81.200 238.136,81.200 238.302 C 81.200 238.469,80.679 238.835,80.043 239.117 C 78.138 239.960,75.593 242.708,75.609 243.905 C 75.615 244.321,75.877 244.075,76.264 243.290 C 77.155 241.483,79.007 240.130,84.600 237.202 C 91.124 233.787,92.933 232.790,93.380 232.363 C 94.041 231.732,93.518 231.971,88.400 234.641 M308.400 232.944 C 308.400 233.154,314.340 236.453,318.582 238.600 C 319.886 239.260,321.728 240.534,322.676 241.431 C 323.624 242.329,324.400 242.932,324.400 242.771 C 324.400 242.090,321.533 239.698,319.355 238.563 C 318.060 237.889,315.065 236.302,312.700 235.038 C 310.335 233.774,308.400 232.831,308.400 232.944 M194.808 360.219 C 191.955 363.161,191.911 363.238,192.622 364.024 C 193.341 364.819,193.366 364.808,195.387 362.813 C 196.508 361.706,197.607 360.800,197.829 360.800 C 198.052 360.800,198.982 360.035,199.896 359.100 L 201.559 357.400 199.640 357.308 C 197.737 357.216,197.695 357.242,194.808 360.219 " stroke="none" fill="#3eccde" fill-rule="evenodd"></path><path id="path4" d="M349.398 199.200 C 349.398 269.930,349.444 298.865,349.500 263.500 C 349.556 228.135,349.556 170.265,349.500 134.900 C 349.444 99.535,349.398 128.470,349.398 199.200 M324.492 157.386 C 323.535 159.354,321.541 160.991,318.040 162.681 C 316.808 163.276,315.710 163.865,315.600 163.991 C 315.490 164.117,313.780 165.021,311.800 166.000 C 309.820 166.979,308.110 167.877,308.000 167.996 C 307.890 168.114,306.950 168.639,305.912 169.162 C 303.656 170.299,303.658 170.304,306.987 171.994 L 309.614 173.327 310.507 172.513 C 310.998 172.065,313.560 170.575,316.200 169.201 C 322.611 165.864,323.570 165.288,325.131 163.837 C 327.694 161.455,328.091 158.947,326.261 156.696 L 325.363 155.592 324.492 157.386 M80.025 161.507 C 80.104 162.439,94.278 170.400,95.860 170.400 C 97.170 170.400,95.860 169.603,87.000 165.005 C 84.800 163.863,82.325 162.543,81.500 162.071 C 80.675 161.600,80.011 161.346,80.025 161.507 M324.504 186.961 C 323.361 189.313,321.941 190.364,315.000 193.994 C 310.204 196.503,304.209 199.718,304.003 199.893 C 303.794 200.071,304.028 200.235,306.707 201.799 L 308.414 202.796 311.907 200.853 C 313.828 199.785,317.219 197.900,319.443 196.665 C 326.211 192.906,328.086 190.047,326.190 186.380 C 325.426 184.903,325.520 184.870,324.504 186.961 M355.867 188.267 C 355.421 188.712,355.569 190.400,356.053 190.400 C 356.441 190.400,358.000 188.920,358.000 188.551 C 358.000 188.482,357.700 188.540,357.334 188.681 C 356.887 188.852,356.764 188.783,356.958 188.468 C 357.264 187.972,356.333 187.801,355.867 188.267 M357.081 191.917 C 355.198 193.845,355.105 195.911,356.971 194.351 C 359.838 191.953,360.082 191.625,359.464 191.007 C 358.672 190.215,358.786 190.171,357.081 191.917 M80.800 192.201 C 81.940 193.426,85.188 195.375,91.072 198.365 C 93.312 199.503,95.204 200.613,95.277 200.831 C 95.354 201.063,95.723 200.998,96.166 200.674 C 96.890 200.145,96.871 200.093,95.762 199.510 C 95.123 199.174,92.890 198.002,90.800 196.906 C 88.710 195.809,85.380 194.060,83.400 193.019 C 80.262 191.370,79.928 191.264,80.800 192.201 M324.563 217.405 C 324.161 219.007,321.255 221.214,316.144 223.800 C 313.535 225.120,311.340 226.335,311.267 226.500 C 311.193 226.665,310.803 226.800,310.400 226.800 C 309.997 226.800,309.607 226.936,309.533 227.102 C 309.460 227.268,308.185 228.015,306.700 228.762 C 303.498 230.372,303.491 230.393,305.811 231.520 C 307.773 232.474,309.007 232.635,309.406 231.991 C 309.545 231.766,310.770 231.026,312.129 230.346 C 322.916 224.948,326.400 222.176,326.400 218.994 C 326.400 216.768,325.022 215.577,324.563 217.405 M80.476 222.332 C 81.864 223.395,84.980 225.312,87.400 226.593 C 89.820 227.875,92.583 229.352,93.540 229.876 C 94.601 230.457,95.589 230.731,96.072 230.577 C 96.711 230.374,96.375 230.074,94.332 229.019 C 92.939 228.300,90.360 226.944,88.600 226.005 C 86.840 225.066,84.050 223.590,82.400 222.727 C 80.750 221.863,79.229 220.986,79.020 220.778 C 78.811 220.570,78.485 220.400,78.296 220.400 C 78.107 220.400,79.088 221.269,80.476 222.332 M324.472 247.200 C 323.479 249.762,322.914 250.119,305.800 259.008 C 303.600 260.150,300.540 261.760,299.000 262.586 C 297.460 263.411,294.400 265.036,292.200 266.196 C 290.000 267.357,286.580 269.164,284.600 270.213 C 282.620 271.262,279.200 273.035,277.000 274.152 C 274.800 275.270,272.910 276.281,272.800 276.400 C 272.690 276.518,270.710 277.581,268.400 278.762 C 266.090 279.943,263.120 281.496,261.800 282.213 C 260.480 282.929,257.240 284.640,254.600 286.014 C 246.922 290.010,242.798 292.175,239.800 293.782 C 236.131 295.748,230.852 298.546,225.400 301.411 C 222.980 302.683,219.470 304.531,217.600 305.516 C 209.629 309.719,208.710 310.122,205.669 310.756 C 200.317 311.872,191.159 310.616,188.186 308.359 C 187.958 308.186,185.798 307.026,183.386 305.780 C 178.118 303.061,170.840 299.241,167.000 297.181 C 165.460 296.355,162.130 294.609,159.600 293.301 C 157.070 291.993,153.110 289.930,150.800 288.718 C 141.250 283.707,135.263 280.582,133.000 279.428 C 131.680 278.756,130.510 278.113,130.400 278.002 C 130.290 277.890,128.040 276.702,125.400 275.362 C 122.760 274.022,118.530 271.843,116.000 270.518 C 113.470 269.194,109.330 267.050,106.800 265.756 C 104.270 264.461,102.110 263.307,102.000 263.193 C 101.890 263.078,100.540 262.358,99.000 261.594 C 97.460 260.829,96.140 260.068,96.067 259.902 C 95.993 259.736,95.588 259.600,95.167 259.600 C 94.745 259.600,94.400 259.420,94.400 259.200 C 94.400 258.980,94.076 258.800,93.680 258.800 C 93.284 258.800,92.789 258.642,92.580 258.450 C 92.371 258.257,90.040 256.974,87.400 255.599 C 84.760 254.224,81.848 252.581,80.928 251.949 C 77.189 249.380,78.240 250.691,84.600 256.532 C 87.240 258.956,97.140 268.523,106.600 277.792 C 124.847 295.669,128.118 298.800,128.544 298.800 C 128.690 298.800,130.513 297.135,132.594 295.100 C 137.771 290.038,138.281 289.600,138.992 289.600 C 139.919 289.600,142.800 290.555,142.800 290.862 C 142.800 291.009,143.541 291.255,144.447 291.408 C 145.353 291.561,147.198 292.181,148.547 292.786 C 149.896 293.391,152.350 294.466,154.000 295.175 C 155.650 295.884,157.720 296.841,158.600 297.303 C 160.754 298.432,160.953 298.525,164.400 300.020 C 168.415 301.761,172.290 303.582,181.600 308.099 C 192.314 313.298,191.886 313.109,195.007 314.002 C 203.266 316.364,209.480 314.871,223.800 307.084 C 225.560 306.127,228.800 304.387,231.000 303.217 C 238.874 299.030,241.034 297.879,243.400 296.606 C 244.720 295.896,247.600 294.367,249.800 293.208 C 252.000 292.049,253.980 290.968,254.200 290.805 C 254.420 290.642,256.490 289.516,258.800 288.302 C 273.163 280.756,277.846 278.272,278.200 278.010 C 278.420 277.847,280.490 276.724,282.800 275.513 C 291.470 270.971,297.451 267.806,299.000 266.939 C 299.880 266.447,302.760 264.931,305.400 263.571 C 324.333 253.818,326.000 252.647,326.000 249.096 C 326.000 247.090,324.997 245.845,324.472 247.200 M50.422 329.400 C 50.413 331.265,51.099 334.032,51.726 334.659 C 51.877 334.810,52.000 335.178,52.000 335.476 C 52.000 338.852,60.198 346.380,65.600 347.965 C 66.590 348.256,67.922 348.652,68.560 348.847 C 70.803 349.530,329.607 349.291,332.280 348.603 C 341.420 346.251,350.647 335.275,349.111 328.582 C 348.991 328.059,348.833 328.330,348.635 329.400 C 347.151 337.409,340.701 344.036,332.280 346.203 C 328.618 347.146,71.264 347.103,67.532 346.159 C 60.279 344.325,51.600 335.912,51.600 330.717 C 51.600 330.373,51.337 329.486,51.016 328.746 L 50.431 327.400 50.422 329.400 M186.100 357.476 C 186.485 357.576,187.115 357.576,187.500 357.476 C 187.885 357.375,187.570 357.293,186.800 357.293 C 186.030 357.293,185.715 357.375,186.100 357.476 M189.875 358.322 C 188.539 359.716,188.530 360.000,189.818 360.000 C 190.827 360.000,192.800 358.424,192.800 357.618 C 192.800 356.778,190.921 357.230,189.875 358.322 " stroke="none" fill="#0d9daf" fill-rule="evenodd"></path><path id="path5" d="M196.131 89.359 C 194.552 89.602,193.127 89.935,192.964 90.100 C 192.800 90.265,192.366 90.400,191.997 90.400 C 191.359 90.400,189.358 91.382,179.400 96.585 C 175.321 98.717,173.131 99.875,164.600 104.416 C 161.032 106.315,156.556 108.662,149.400 112.386 C 146.760 113.760,143.880 115.290,143.000 115.786 C 142.120 116.283,139.150 117.838,136.400 119.242 C 133.650 120.646,131.310 121.888,131.200 122.003 C 131.090 122.118,129.560 122.950,127.800 123.852 C 126.040 124.754,123.250 126.207,121.600 127.080 C 119.950 127.953,116.260 129.889,113.400 131.382 C 110.540 132.875,106.940 134.773,105.400 135.599 C 102.599 137.101,98.387 139.338,92.000 142.713 C 90.130 143.701,86.449 145.610,83.819 146.955 C 78.730 149.558,75.586 152.153,75.618 153.724 C 75.632 154.431,75.786 154.316,76.416 153.121 C 77.393 151.272,78.717 150.291,84.000 147.502 C 86.310 146.282,89.640 144.520,91.400 143.586 C 93.160 142.651,96.490 140.900,98.800 139.695 C 105.201 136.354,110.345 133.640,113.000 132.201 C 114.320 131.486,117.290 129.909,119.600 128.695 C 121.910 127.481,125.330 125.682,127.200 124.697 C 133.037 121.622,138.250 118.879,142.300 116.752 C 144.445 115.626,147.640 113.939,149.400 113.004 C 157.896 108.491,160.819 106.944,163.400 105.596 C 173.351 100.396,177.167 98.388,181.600 96.014 C 197.540 87.480,202.342 87.354,217.101 95.081 C 225.195 99.318,225.614 99.521,225.000 98.888 C 224.367 98.238,209.868 90.694,208.357 90.229 C 207.317 89.909,200.051 88.814,199.400 88.878 C 199.180 88.900,197.709 89.117,196.131 89.359 M227.420 100.354 C 227.629 100.549,229.600 101.653,231.800 102.807 C 234.000 103.961,237.240 105.668,239.000 106.600 C 245.682 110.137,249.139 111.960,253.400 114.196 C 255.820 115.465,259.465 117.380,261.500 118.452 C 263.535 119.523,266.955 121.323,269.100 122.451 C 272.866 124.432,276.250 126.220,283.000 129.796 C 287.994 132.442,293.401 135.290,298.200 137.802 C 307.156 142.491,310.242 144.128,311.931 145.087 C 312.884 145.628,313.750 145.983,313.856 145.877 C 313.963 145.771,313.544 145.417,312.925 145.091 C 312.306 144.766,310.090 143.604,308.000 142.509 C 305.910 141.415,303.030 139.891,301.600 139.123 C 300.170 138.356,296.840 136.593,294.200 135.206 C 291.560 133.819,287.690 131.777,285.600 130.669 C 283.510 129.560,280.360 127.924,278.600 127.032 C 276.840 126.141,275.310 125.318,275.200 125.203 C 275.090 125.089,273.920 124.443,272.600 123.768 C 270.292 122.587,266.689 120.695,256.800 115.470 C 254.270 114.133,250.760 112.313,249.000 111.425 C 247.240 110.538,245.710 109.718,245.600 109.603 C 245.490 109.489,244.320 108.841,243.000 108.164 C 236.265 104.707,229.312 101.025,228.611 100.543 C 227.722 99.931,226.812 99.787,227.420 100.354 M314.400 146.194 C 314.400 146.366,318.758 148.749,319.800 149.147 C 320.847 149.547,319.181 148.389,317.075 147.254 C 314.701 145.973,314.400 145.854,314.400 146.194 M321.200 150.000 C 321.750 150.430,322.359 150.786,322.554 150.791 C 322.749 150.796,322.450 150.440,321.891 150.000 C 321.331 149.560,320.722 149.204,320.537 149.209 C 320.352 149.214,320.650 149.570,321.200 150.000 M94.600 171.462 C 92.417 173.010,92.480 173.031,95.276 171.697 C 97.184 170.787,98.071 169.982,97.124 170.022 C 96.836 170.034,95.700 170.682,94.600 171.462 M301.823 170.763 C 301.700 170.962,301.940 171.036,302.356 170.927 C 302.800 170.811,305.120 171.730,307.957 173.146 C 313.186 175.755,314.166 176.065,310.500 173.949 C 304.946 170.744,302.410 169.813,301.823 170.763 M324.024 183.159 C 324.908 184.973,322.501 189.600,320.673 189.600 C 320.339 189.600,320.007 189.735,319.933 189.900 C 319.813 190.170,317.711 191.378,315.303 192.560 C 314.810 192.802,314.405 193.135,314.403 193.300 C 314.401 193.465,314.085 193.601,313.700 193.602 C 313.315 193.604,312.460 193.899,311.800 194.258 C 310.246 195.105,303.266 198.771,302.103 199.352 C 301.610 199.598,301.205 199.935,301.203 200.100 C 301.201 200.265,300.840 200.400,300.400 200.400 C 299.960 200.400,299.599 200.535,299.599 200.700 C 299.598 200.865,298.608 201.450,297.400 202.000 C 296.192 202.550,295.202 203.135,295.201 203.300 C 295.201 203.465,294.840 203.600,294.400 203.600 C 293.960 203.600,293.600 203.780,293.600 204.000 C 293.600 204.220,293.255 204.400,292.833 204.400 C 292.412 204.400,292.007 204.535,291.933 204.700 C 291.766 205.076,289.636 206.375,288.700 206.671 C 288.315 206.793,288.000 207.051,288.000 207.244 C 288.000 207.438,291.302 205.932,295.339 203.898 C 299.375 201.864,303.920 199.618,305.439 198.907 C 306.957 198.195,309.640 196.832,311.400 195.878 C 313.160 194.924,316.040 193.376,317.800 192.439 C 324.443 188.903,326.494 185.876,324.195 183.000 C 323.579 182.228,323.573 182.234,324.024 183.159 M75.656 185.000 C 75.627 185.660,75.980 186.830,76.440 187.600 C 78.006 190.220,78.052 190.250,90.600 196.790 C 92.580 197.822,94.880 199.056,95.712 199.533 C 96.544 200.010,97.534 200.401,97.912 200.402 C 98.290 200.404,99.050 200.643,99.600 200.933 C 109.260 206.036,112.400 207.605,112.399 207.331 C 112.398 207.149,111.408 206.550,110.200 206.000 C 108.992 205.450,108.002 204.865,108.001 204.700 C 108.001 204.535,107.655 204.400,107.233 204.400 C 106.812 204.400,106.407 204.263,106.333 204.096 C 106.260 203.929,104.580 202.995,102.600 202.021 C 100.620 201.046,98.730 200.037,98.400 199.780 C 98.070 199.522,94.830 197.801,91.200 195.955 C 87.570 194.110,84.510 192.508,84.400 192.395 C 84.290 192.282,83.300 191.742,82.200 191.195 C 81.100 190.648,79.851 189.886,79.425 189.501 C 78.998 189.115,78.527 188.800,78.378 188.800 C 77.933 188.800,76.087 185.803,75.891 184.763 C 75.733 183.929,75.702 183.961,75.656 185.000 M90.800 203.483 C 88.930 204.486,86.140 205.974,84.600 206.788 C 81.865 208.235,78.621 210.095,77.780 210.699 C 77.094 211.191,75.600 213.482,75.600 214.042 C 75.600 214.327,76.062 213.848,76.627 212.977 C 77.751 211.243,79.107 210.247,83.500 207.930 C 85.095 207.088,87.795 205.653,89.500 204.740 C 91.205 203.826,93.004 202.881,93.497 202.640 C 93.990 202.398,94.395 202.065,94.397 201.900 C 94.401 201.518,94.735 201.371,90.800 203.483 M114.400 208.556 C 114.400 208.679,114.940 209.059,115.600 209.400 C 116.260 209.741,116.800 209.857,116.800 209.657 C 116.800 209.457,116.485 209.182,116.100 209.046 C 115.715 208.911,115.175 208.695,114.900 208.566 C 114.625 208.438,114.400 208.434,114.400 208.556 M284.733 208.700 C 284.660 208.865,282.800 209.894,280.600 210.986 C 278.400 212.078,276.122 213.293,275.538 213.686 C 274.954 214.079,274.204 214.400,273.872 214.400 C 273.539 214.400,273.207 214.541,273.133 214.714 C 273.060 214.886,271.650 215.705,270.000 216.533 C 268.350 217.361,265.740 218.754,264.200 219.629 C 262.660 220.504,261.085 221.327,260.700 221.457 C 260.315 221.587,260.000 221.866,260.000 222.078 C 260.000 222.289,261.845 221.480,264.100 220.278 C 269.106 217.612,273.378 215.365,280.200 211.808 C 285.746 208.916,286.551 208.400,285.513 208.400 C 285.158 208.400,284.807 208.535,284.733 208.700 M117.233 210.145 C 117.807 210.645,121.327 212.407,121.469 212.265 C 121.680 212.053,118.066 210.000,117.483 210.000 C 117.254 210.000,117.142 210.065,117.233 210.145 M122.220 212.760 C 122.429 212.958,124.940 214.335,127.800 215.820 C 130.660 217.304,135.675 219.942,138.945 221.681 C 142.215 223.420,144.971 224.762,145.070 224.663 C 145.169 224.564,144.744 224.220,144.125 223.899 C 140.591 222.063,139.386 221.368,139.267 221.100 C 139.193 220.935,138.803 220.800,138.400 220.800 C 137.997 220.800,137.607 220.664,137.533 220.499 C 137.460 220.333,135.600 219.278,133.400 218.155 C 131.200 217.032,127.830 215.277,125.912 214.256 C 122.536 212.460,121.430 212.011,122.220 212.760 M198.900 221.091 C 199.725 221.178,201.075 221.178,201.900 221.091 C 202.725 221.005,202.050 220.934,200.400 220.934 C 198.750 220.934,198.075 221.005,198.900 221.091 M253.600 225.125 C 253.600 225.304,252.970 225.698,252.200 226.000 C 251.430 226.302,250.800 226.696,250.800 226.875 C 250.800 227.343,250.905 227.309,252.950 226.166 C 254.918 225.066,255.161 224.800,254.200 224.800 C 253.870 224.800,253.600 224.946,253.600 225.125 M248.980 227.562 C 248.771 227.762,245.990 229.270,242.800 230.915 C 234.899 234.989,233.433 235.766,233.200 236.005 C 233.090 236.118,232.100 236.658,231.000 237.205 C 229.900 237.752,228.940 238.335,228.867 238.500 C 228.793 238.665,228.388 238.800,227.967 238.800 C 227.545 238.800,227.200 238.980,227.200 239.200 C 227.200 239.782,227.043 239.850,233.058 236.667 C 243.658 231.058,248.207 228.660,249.300 228.102 C 249.905 227.794,250.400 227.465,250.400 227.371 C 250.400 227.056,249.364 227.196,248.980 227.562 M151.820 228.360 C 152.029 228.558,154.090 229.702,156.400 230.902 C 169.072 237.486,171.835 238.950,172.180 239.259 C 172.650 239.680,173.202 239.703,173.193 239.300 C 173.189 239.135,172.244 238.560,171.093 238.023 C 169.942 237.485,168.910 236.942,168.800 236.815 C 168.690 236.688,167.340 235.958,165.800 235.194 C 164.260 234.429,162.940 233.668,162.867 233.502 C 162.793 233.336,162.388 233.200,161.967 233.200 C 161.545 233.200,161.200 233.020,161.200 232.800 C 161.200 232.580,160.855 232.400,160.433 232.400 C 160.012 232.400,159.607 232.252,159.533 232.071 C 159.402 231.747,152.186 228.000,151.693 228.000 C 151.554 228.000,151.611 228.162,151.820 228.360 M96.000 230.800 C 96.000 231.020,95.775 231.204,95.500 231.209 C 95.225 231.214,94.550 231.584,94.000 232.031 C 93.133 232.736,93.265 232.715,95.000 231.878 C 96.100 231.347,97.270 230.811,97.600 230.688 C 97.945 230.559,97.732 230.450,97.100 230.432 C 96.495 230.414,96.000 230.580,96.000 230.800 M305.200 232.000 C 308.316 233.621,309.580 234.023,308.200 232.955 C 306.883 231.936,303.677 230.399,302.913 230.420 C 302.521 230.431,303.550 231.142,305.200 232.000 M173.600 239.756 C 173.600 239.879,174.140 240.259,174.800 240.600 C 175.460 240.941,176.000 241.057,176.000 240.857 C 176.000 240.657,175.685 240.382,175.300 240.246 C 174.915 240.111,174.375 239.895,174.100 239.766 C 173.825 239.638,173.600 239.634,173.600 239.756 M225.600 240.000 C 225.600 240.220,225.240 240.400,224.800 240.400 C 224.360 240.400,224.000 240.536,224.000 240.702 C 224.000 240.869,223.415 241.259,222.700 241.570 C 221.069 242.280,219.527 243.260,219.727 243.460 C 219.891 243.624,225.950 240.515,226.580 239.944 C 226.808 239.738,226.688 239.600,226.280 239.600 C 225.906 239.600,225.600 239.780,225.600 240.000 M324.239 244.016 C 324.776 246.670,322.608 248.959,316.903 251.760 C 316.410 252.002,316.005 252.335,316.003 252.500 C 316.001 252.665,315.640 252.800,315.200 252.800 C 314.760 252.800,314.400 252.980,314.400 253.200 C 314.400 253.420,314.040 253.600,313.600 253.600 C 313.160 253.600,312.800 253.746,312.800 253.925 C 312.800 254.104,312.170 254.498,311.400 254.800 C 310.630 255.102,310.000 255.496,310.000 255.675 C 310.000 255.854,309.640 256.000,309.200 256.000 C 308.760 256.000,308.400 256.180,308.400 256.400 C 308.400 256.620,308.040 256.800,307.600 256.800 C 307.160 256.800,306.800 256.980,306.800 257.200 C 306.800 257.420,306.440 257.600,306.000 257.600 C 305.560 257.600,305.200 257.759,305.200 257.953 C 305.200 258.148,304.885 258.407,304.500 258.529 C 304.115 258.651,303.350 259.019,302.800 259.347 C 302.250 259.674,300.360 260.624,298.600 261.458 C 296.840 262.291,295.340 263.114,295.267 263.286 C 295.193 263.459,294.788 263.600,294.367 263.600 C 293.945 263.600,293.600 263.780,293.600 264.000 C 293.600 264.220,293.240 264.400,292.800 264.400 C 292.360 264.400,291.997 264.535,291.994 264.700 C 291.990 264.865,291.090 265.440,289.994 265.979 C 288.897 266.517,288.000 267.102,288.000 267.279 C 288.000 267.455,287.640 267.600,287.200 267.600 C 286.760 267.600,286.400 267.780,286.400 268.000 C 286.400 268.220,286.040 268.400,285.600 268.400 C 285.160 268.400,284.800 268.580,284.800 268.800 C 284.800 269.020,284.440 269.200,284.000 269.200 C 283.560 269.200,283.200 269.380,283.200 269.600 C 283.200 269.820,282.840 270.000,282.400 270.000 C 281.960 270.000,281.600 270.146,281.600 270.325 C 281.600 270.504,280.970 270.898,280.200 271.200 C 279.430 271.502,278.800 271.896,278.800 272.075 C 278.800 272.254,278.440 272.400,278.000 272.400 C 277.560 272.400,277.200 272.580,277.200 272.800 C 277.200 273.020,276.840 273.200,276.400 273.200 C 275.960 273.200,275.600 273.380,275.600 273.600 C 275.600 273.820,275.364 274.000,275.075 274.000 C 274.787 274.000,274.164 274.360,273.692 274.800 C 273.220 275.240,272.556 275.600,272.217 275.600 C 271.878 275.600,271.600 275.780,271.600 276.000 C 271.600 276.220,271.240 276.400,270.800 276.400 C 270.360 276.400,270.000 276.580,270.000 276.800 C 270.000 277.020,269.685 277.203,269.300 277.207 C 268.567 277.215,264.674 279.110,261.600 280.955 C 260.610 281.549,259.485 282.138,259.100 282.264 C 258.715 282.390,258.400 282.652,258.400 282.847 C 258.400 283.041,258.040 283.200,257.600 283.200 C 257.160 283.200,256.800 283.380,256.800 283.600 C 256.800 283.820,256.440 284.000,256.000 284.000 C 255.560 284.000,255.200 284.180,255.200 284.400 C 255.200 284.620,254.840 284.800,254.400 284.800 C 253.960 284.800,253.600 284.980,253.600 285.200 C 253.600 285.420,253.240 285.600,252.800 285.600 C 252.360 285.600,252.000 285.780,252.000 286.000 C 252.000 286.220,251.640 286.400,251.200 286.400 C 250.760 286.400,250.400 286.546,250.400 286.725 C 250.400 286.904,249.770 287.298,249.000 287.600 C 248.230 287.902,247.600 288.262,247.600 288.400 C 247.600 288.538,246.970 288.898,246.200 289.200 C 245.430 289.502,244.800 289.896,244.800 290.075 C 244.800 290.254,244.530 290.400,244.200 290.400 C 243.870 290.400,243.600 290.580,243.600 290.800 C 243.600 291.020,243.240 291.200,242.800 291.200 C 242.360 291.200,242.000 291.380,242.000 291.600 C 242.000 291.820,241.640 292.000,241.200 292.000 C 240.760 292.000,240.400 292.180,240.400 292.400 C 240.400 292.620,240.040 292.800,239.600 292.800 C 239.160 292.800,238.800 292.980,238.800 293.200 C 238.800 293.420,238.513 293.600,238.161 293.600 C 237.560 293.600,230.432 297.118,230.000 297.628 C 229.890 297.758,229.215 298.119,228.500 298.430 C 227.785 298.741,227.200 299.131,227.200 299.298 C 227.200 299.464,226.840 299.600,226.400 299.600 C 225.960 299.600,225.600 299.780,225.600 300.000 C 225.600 300.220,225.240 300.400,224.800 300.400 C 224.360 300.400,224.000 300.580,224.000 300.800 C 224.000 301.020,223.640 301.200,223.200 301.200 C 222.760 301.200,222.400 301.380,222.400 301.600 C 222.400 301.820,222.055 302.000,221.633 302.000 C 221.212 302.000,220.807 302.135,220.733 302.300 C 220.660 302.465,219.745 303.033,218.700 303.563 C 217.655 304.092,216.800 304.677,216.800 304.863 C 216.800 305.048,216.440 305.200,216.000 305.200 C 215.560 305.200,215.200 305.380,215.200 305.600 C 215.200 305.820,214.840 306.000,214.400 306.000 C 213.960 306.000,213.600 306.180,213.600 306.400 C 213.600 306.620,213.240 306.800,212.800 306.800 C 212.360 306.800,212.000 306.946,212.000 307.125 C 212.000 307.304,211.370 307.698,210.600 308.000 C 209.830 308.302,209.200 308.696,209.200 308.875 C 209.200 309.054,208.581 309.200,207.824 309.200 C 207.067 309.200,206.336 309.380,206.200 309.600 C 206.053 309.838,203.529 310.000,199.976 310.000 C 196.259 310.000,194.000 309.849,194.000 309.600 C 194.000 309.380,193.460 309.200,192.800 309.200 C 192.140 309.200,191.600 309.020,191.600 308.800 C 191.600 308.580,191.240 308.400,190.800 308.400 C 190.360 308.400,190.000 308.220,190.000 308.000 C 190.000 307.780,189.640 307.600,189.200 307.600 C 188.760 307.600,188.400 307.454,188.400 307.275 C 188.400 307.096,187.770 306.702,187.000 306.400 C 186.230 306.098,185.600 305.704,185.600 305.525 C 185.600 305.346,185.240 305.200,184.800 305.200 C 184.360 305.200,184.000 305.020,184.000 304.800 C 184.000 304.580,183.640 304.400,183.200 304.400 C 182.760 304.400,182.400 304.220,182.400 304.000 C 182.400 303.780,182.040 303.600,181.600 303.600 C 181.160 303.600,180.800 303.420,180.800 303.200 C 180.800 302.980,180.440 302.800,180.000 302.800 C 179.560 302.800,179.200 302.620,179.200 302.400 C 179.200 302.180,178.840 302.000,178.400 302.000 C 177.960 302.000,177.600 301.820,177.600 301.600 C 177.600 301.380,177.240 301.200,176.800 301.200 C 176.360 301.200,175.999 301.065,175.997 300.900 C 175.995 300.735,175.590 300.399,175.097 300.152 C 174.235 299.722,162.918 293.874,159.200 291.938 C 158.210 291.422,157.340 290.865,157.267 290.700 C 157.193 290.535,156.788 290.400,156.367 290.400 C 155.945 290.400,155.599 290.265,155.599 290.100 C 155.598 289.935,154.608 289.350,153.400 288.800 C 152.192 288.250,151.202 287.665,151.201 287.500 C 151.201 287.335,150.840 287.200,150.400 287.200 C 149.960 287.200,149.600 287.020,149.600 286.800 C 149.600 286.580,149.240 286.400,148.800 286.400 C 148.360 286.400,148.000 286.220,148.000 286.000 C 148.000 285.780,147.640 285.600,147.200 285.600 C 146.760 285.600,146.399 285.465,146.397 285.300 C 146.395 285.135,145.990 284.799,145.497 284.554 C 145.004 284.309,143.160 283.341,141.400 282.404 C 139.640 281.466,135.860 279.512,133.000 278.063 C 130.140 276.613,127.740 275.286,127.667 275.114 C 127.593 274.941,127.188 274.800,126.767 274.800 C 126.345 274.800,126.000 274.620,126.000 274.400 C 126.000 274.180,125.640 274.000,125.200 274.000 C 124.760 274.000,124.400 273.820,124.400 273.600 C 124.400 273.380,124.040 273.200,123.600 273.200 C 123.160 273.200,122.800 273.054,122.800 272.875 C 122.800 272.696,122.170 272.302,121.400 272.000 C 120.630 271.698,120.000 271.304,120.000 271.125 C 120.000 270.946,119.655 270.800,119.233 270.800 C 118.812 270.800,118.407 270.665,118.333 270.500 C 118.203 270.206,117.017 269.538,112.200 267.043 C 110.880 266.359,109.740 265.665,109.667 265.500 C 109.593 265.335,109.188 265.200,108.767 265.200 C 108.345 265.200,108.000 265.020,108.000 264.800 C 108.000 264.580,107.655 264.400,107.233 264.400 C 106.812 264.400,106.407 264.265,106.333 264.100 C 106.260 263.935,104.400 262.900,102.200 261.800 C 100.000 260.700,98.140 259.665,98.067 259.500 C 97.993 259.335,97.588 259.200,97.167 259.200 C 96.745 259.200,96.400 259.020,96.400 258.800 C 96.400 258.580,96.040 258.400,95.600 258.400 C 95.160 258.400,94.800 258.220,94.800 258.000 C 94.800 257.780,94.440 257.600,94.000 257.600 C 93.560 257.600,93.200 257.420,93.200 257.200 C 93.200 256.980,92.840 256.800,92.400 256.800 C 91.960 256.800,91.600 256.664,91.600 256.498 C 91.600 256.331,91.015 255.941,90.300 255.630 C 89.585 255.319,88.910 254.960,88.800 254.832 C 88.588 254.586,86.589 253.494,82.522 251.402 C 78.200 249.180,76.929 247.919,75.867 244.800 C 75.755 244.470,75.649 244.704,75.632 245.320 C 75.550 248.197,77.371 249.845,85.000 253.801 C 91.024 256.924,94.262 258.626,100.200 261.793 C 105.709 264.730,110.353 267.182,121.900 273.249 C 124.045 274.376,127.060 275.970,128.600 276.790 C 130.140 277.611,133.110 279.185,135.200 280.288 C 137.290 281.392,140.530 283.105,142.400 284.095 C 147.273 286.676,152.479 289.431,156.400 291.503 C 158.270 292.491,161.060 293.973,162.600 294.796 C 165.335 296.258,168.290 297.824,176.000 301.898 C 178.090 303.002,181.594 304.837,183.787 305.976 C 185.979 307.114,187.959 308.186,188.187 308.357 C 188.414 308.529,189.590 309.034,190.800 309.480 C 198.181 312.201,205.780 311.772,212.400 308.260 C 213.610 307.618,216.040 306.335,217.800 305.408 C 219.560 304.482,222.530 302.909,224.400 301.914 C 226.270 300.918,229.960 298.972,232.600 297.590 C 235.240 296.208,238.570 294.448,240.000 293.679 C 242.764 292.193,246.812 290.067,254.600 286.014 C 257.240 284.640,260.480 282.929,261.800 282.213 C 263.120 281.496,266.090 279.943,268.400 278.762 C 270.710 277.581,272.690 276.518,272.800 276.400 C 272.910 276.281,274.800 275.270,277.000 274.152 C 279.200 273.035,282.620 271.262,284.600 270.213 C 286.580 269.164,290.000 267.357,292.200 266.196 C 294.400 265.036,297.460 263.411,299.000 262.586 C 300.540 261.760,303.600 260.150,305.800 259.008 C 323.221 249.960,323.376 249.860,324.626 246.874 C 325.102 245.736,325.099 245.367,324.607 244.274 C 324.141 243.239,324.072 243.190,324.239 244.016 M181.200 243.771 C 181.200 243.955,181.456 244.095,187.200 247.069 C 194.311 250.749,200.883 251.528,207.800 249.509 C 209.410 249.039,218.272 244.644,218.980 243.965 C 219.765 243.211,218.656 243.671,213.699 246.157 C 203.458 251.293,197.011 251.331,186.887 246.318 C 184.625 245.198,182.679 244.128,182.563 243.940 C 182.351 243.597,181.200 243.454,181.200 243.771 " stroke="none" fill="#64b2c5" fill-rule="evenodd"></path><path id="path6" d="M341.570 55.312 C 342.103 55.910,342.701 56.400,342.898 56.400 C 343.286 56.400,342.672 55.750,341.398 54.812 C 340.813 54.381,340.858 54.514,341.570 55.312 M343.802 57.602 C 344.202 58.044,344.611 58.322,344.712 58.221 C 344.928 58.005,343.788 56.800,343.367 56.800 C 343.207 56.800,343.403 57.161,343.802 57.602 M349.059 68.600 C 349.199 69.700,349.377 70.675,349.456 70.767 C 349.799 71.164,349.550 67.741,349.197 67.200 C 348.930 66.790,348.886 67.235,349.059 68.600 M324.561 155.463 C 324.537 156.554,324.652 157.045,324.855 156.725 C 325.267 156.076,325.286 154.755,324.894 154.138 C 324.732 153.885,324.582 154.481,324.561 155.463 M75.646 155.719 C 75.592 157.507,78.074 160.292,81.203 161.955 C 82.191 162.481,85.059 163.979,87.575 165.285 C 90.092 166.592,92.517 167.917,92.964 168.230 C 93.865 168.861,94.804 169.027,94.180 168.446 C 93.971 168.251,92.000 167.149,89.800 165.996 C 76.978 159.281,76.660 159.043,75.972 155.600 L 75.692 154.200 75.646 155.719 M322.347 159.316 C 321.327 160.242,318.627 161.951,316.347 163.113 C 304.060 169.373,302.757 170.145,303.794 170.542 C 304.150 170.679,304.347 170.639,304.232 170.452 C 304.117 170.266,304.873 169.686,305.912 169.162 C 306.950 168.639,307.890 168.114,308.000 167.996 C 308.110 167.877,309.820 166.979,311.800 166.000 C 313.780 165.021,315.490 164.117,315.600 163.991 C 315.710 163.865,316.808 163.276,318.040 162.681 C 320.839 161.330,323.424 159.477,323.993 158.413 C 324.578 157.321,324.488 157.370,322.347 159.316 M95.376 169.413 C 95.804 169.736,96.434 169.999,96.776 169.998 C 97.119 169.996,96.884 169.726,96.254 169.398 C 94.804 168.641,94.366 168.649,95.376 169.413 M354.282 190.086 C 354.436 193.849,354.622 195.074,355.096 195.420 C 355.550 195.753,355.637 196.225,355.429 197.235 C 354.822 200.185,354.720 202.000,355.160 202.000 C 355.402 202.000,355.600 201.410,355.600 200.690 C 355.600 199.591,356.084 198.899,358.600 196.400 C 362.113 192.910,362.082 193.042,359.926 190.767 C 359.005 189.795,358.279 188.883,358.313 188.739 C 358.395 188.388,354.916 185.200,354.451 185.200 C 354.237 185.200,354.167 187.242,354.282 190.086 M356.958 188.468 C 356.764 188.783,356.887 188.852,357.334 188.681 C 357.700 188.540,358.000 188.482,358.000 188.551 C 358.000 188.920,356.441 190.400,356.053 190.400 C 355.569 190.400,355.421 188.712,355.867 188.267 C 356.333 187.801,357.264 187.972,356.958 188.468 M359.464 191.007 C 360.082 191.625,359.838 191.953,356.971 194.351 C 355.105 195.911,355.198 193.845,357.081 191.917 C 358.786 190.171,358.672 190.215,359.464 191.007 M302.800 200.162 C 302.800 200.437,312.532 205.602,312.711 205.422 C 312.804 205.330,312.007 204.790,310.940 204.223 C 308.706 203.037,307.197 202.169,305.153 200.899 C 303.830 200.077,302.800 199.755,302.800 200.162 M95.500 201.029 C 94.895 201.357,94.400 201.704,94.400 201.800 C 94.400 202.056,95.677 201.550,96.589 200.934 C 97.651 200.215,96.874 200.283,95.500 201.029 M324.227 213.803 C 324.550 214.575,324.717 215.700,324.598 216.303 C 324.392 217.358,324.401 217.366,324.854 216.496 C 325.345 215.556,324.653 212.400,323.956 212.400 C 323.783 212.400,323.905 213.032,324.227 213.803 M75.600 215.776 C 75.600 216.533,75.738 217.238,75.907 217.343 C 76.076 217.447,76.148 216.828,76.065 215.966 C 75.881 214.032,75.600 213.918,75.600 215.776 M323.147 218.919 C 322.585 219.623,320.611 220.988,318.762 221.952 C 315.835 223.477,313.735 224.818,315.008 224.350 C 318.329 223.128,325.011 218.502,324.385 217.858 C 324.267 217.736,323.710 218.214,323.147 218.919 M78.005 219.894 C 78.011 220.279,80.816 222.117,81.046 221.887 C 81.140 221.794,80.493 221.238,79.608 220.653 C 78.724 220.068,78.002 219.726,78.005 219.894 M85.000 223.919 C 85.650 224.578,88.478 226.056,88.687 225.846 C 88.793 225.741,87.917 225.172,86.740 224.584 C 85.563 223.995,84.780 223.696,85.000 223.919 M91.000 227.132 C 91.752 227.911,97.200 230.600,97.200 230.192 C 97.200 230.091,95.715 229.268,93.900 228.363 C 92.085 227.458,90.780 226.904,91.000 227.132 M307.493 227.893 C 305.132 229.192,305.256 229.544,307.643 228.319 C 309.818 227.204,309.770 227.237,309.560 227.026 C 309.464 226.931,308.534 227.321,307.493 227.893 M81.504 252.271 C 82.000 252.672,83.970 253.810,85.879 254.800 C 87.789 255.790,90.239 257.103,91.323 257.718 C 92.407 258.332,93.485 258.772,93.717 258.694 C 93.949 258.617,93.343 258.139,92.370 257.633 C 83.168 252.849,80.729 251.645,81.504 252.271 M96.010 259.893 C 96.021 260.259,99.671 262.062,99.912 261.821 C 100.004 261.729,99.162 261.189,98.040 260.620 C 96.918 260.052,96.004 259.725,96.010 259.893 M102.017 263.073 C 102.026 263.253,104.501 264.635,107.517 266.145 C 110.533 267.655,112.820 268.714,112.600 268.497 C 111.899 267.806,101.999 262.733,102.017 263.073 M113.200 268.903 C 113.629 269.359,117.278 271.255,117.432 271.102 C 117.521 271.012,116.742 270.503,115.701 269.969 C 113.556 268.871,112.911 268.596,113.200 268.903 M118.000 271.379 C 118.000 271.489,118.540 271.859,119.200 272.200 C 119.860 272.541,120.400 272.731,120.400 272.621 C 120.400 272.511,119.860 272.141,119.200 271.800 C 118.540 271.459,118.000 271.269,118.000 271.379 M349.262 328.800 C 348.803 337.739,341.553 346.181,332.257 348.602 C 329.612 349.291,70.806 349.531,68.560 348.847 C 67.922 348.652,66.590 348.256,65.600 347.965 C 63.719 347.413,61.736 346.429,59.938 345.153 C 58.405 344.065,58.075 344.227,59.438 345.400 C 60.077 345.949,60.825 346.399,61.100 346.400 C 61.375 346.400,61.600 346.580,61.600 346.800 C 61.600 347.020,61.945 347.200,62.367 347.200 C 62.788 347.200,63.193 347.345,63.267 347.521 C 63.340 347.698,64.665 348.238,66.211 348.721 L 69.023 349.600 200.011 349.596 C 344.461 349.591,332.129 349.815,337.563 347.091 C 344.110 343.807,350.085 334.740,349.496 328.982 L 349.334 327.400 349.262 328.800 M52.009 336.700 C 52.014 336.865,52.370 337.450,52.800 338.000 C 53.230 338.550,53.586 339.148,53.591 339.329 C 53.601 339.679,54.800 340.996,54.800 340.655 C 54.800 340.377,52.314 336.400,52.140 336.400 C 52.063 336.400,52.004 336.535,52.009 336.700 M56.487 342.605 C 57.304 343.460,58.038 344.079,58.117 343.980 C 58.197 343.881,57.528 343.181,56.631 342.425 L 55.000 341.050 56.487 342.605 M184.893 356.400 C 184.962 356.761,185.645 357.097,186.604 357.243 C 187.922 357.444,187.995 357.496,187.022 357.543 L 185.843 357.600 187.200 359.000 C 187.946 359.770,188.752 360.400,188.990 360.400 C 189.228 360.400,189.683 360.760,190.000 361.200 C 190.317 361.640,190.792 362.000,191.055 362.000 C 191.318 362.000,191.617 362.225,191.720 362.500 C 191.832 362.801,193.085 361.844,194.863 360.100 C 196.745 358.253,198.142 357.200,198.709 357.200 C 199.199 357.200,199.600 357.002,199.600 356.760 C 199.600 356.321,197.764 356.423,194.879 357.023 C 193.909 357.224,193.432 357.131,193.079 356.669 C 192.384 355.759,184.723 355.507,184.893 356.400 M192.800 357.618 C 192.800 358.424,190.827 360.000,189.818 360.000 C 188.530 360.000,188.539 359.716,189.875 358.322 C 190.921 357.230,192.800 356.778,192.800 357.618 " stroke="none" fill="#34889c" fill-rule="evenodd"></path><path id="path7" d="M336.000 51.614 C 336.000 51.826,336.272 52.000,336.605 52.000 C 337.180 52.000,338.769 52.747,339.200 53.219 C 339.310 53.340,340.030 53.877,340.800 54.413 C 342.682 55.722,344.477 57.567,345.168 58.903 C 345.480 59.506,345.885 60.000,346.068 60.000 C 346.250 60.000,346.400 60.270,346.400 60.600 C 346.400 60.930,346.536 61.200,346.702 61.200 C 347.056 61.200,348.163 63.751,349.145 66.828 C 350.089 69.791,349.762 330.574,348.810 333.474 C 346.314 341.076,340.602 346.679,332.995 348.986 C 331.232 349.521,315.777 349.592,200.011 349.596 L 69.023 349.600 66.211 348.721 C 64.665 348.238,63.340 347.698,63.267 347.521 C 63.193 347.345,62.788 347.200,62.367 347.200 C 61.945 347.200,61.600 347.020,61.600 346.800 C 61.600 346.580,61.336 346.400,61.014 346.400 C 60.355 346.400,54.074 340.293,53.300 338.900 C 52.752 337.914,52.062 336.585,51.538 335.505 C 51.352 335.123,51.200 334.448,51.200 334.005 C 51.200 333.562,51.020 333.200,50.800 333.200 C 50.534 333.200,50.379 288.791,50.336 200.900 C 50.301 128.135,50.198 69.230,50.107 70.000 C 50.017 70.770,49.776 71.571,49.571 71.780 C 49.069 72.294,49.070 334.516,49.573 336.172 C 49.778 336.847,50.170 338.210,50.444 339.200 C 51.042 341.363,53.416 346.150,54.223 346.819 C 54.540 347.082,54.800 347.508,54.800 347.766 C 54.800 348.352,58.075 351.600,58.666 351.600 C 58.906 351.600,59.319 351.862,59.585 352.182 C 60.205 352.928,65.594 355.600,66.480 355.600 C 66.850 355.600,67.264 355.780,67.400 356.000 C 67.536 356.220,68.231 356.400,68.944 356.400 C 69.657 356.400,70.419 356.579,70.637 356.797 C 70.896 357.056,91.056 357.230,128.297 357.297 C 164.463 357.362,185.420 357.260,185.180 357.020 C 184.191 356.031,184.919 355.804,188.700 355.921 C 191.668 356.013,192.715 356.192,193.079 356.669 C 193.432 357.131,193.909 357.224,194.879 357.023 C 198.049 356.364,199.600 356.311,199.600 356.860 C 199.600 357.534,333.491 357.469,334.166 356.794 C 334.383 356.577,335.143 356.400,335.856 356.400 C 336.569 356.400,337.264 356.220,337.400 356.000 C 337.536 355.780,337.950 355.600,338.320 355.600 C 339.206 355.600,344.595 352.928,345.215 352.182 C 345.481 351.862,345.861 351.600,346.060 351.600 C 346.531 351.600,350.000 348.131,350.000 347.660 C 350.000 347.461,350.262 347.081,350.582 346.815 C 351.328 346.195,354.000 340.806,354.000 339.920 C 354.000 339.550,354.180 339.136,354.400 339.000 C 354.620 338.864,354.800 338.169,354.800 337.456 C 354.800 336.743,354.978 335.982,355.196 335.764 C 355.874 335.086,355.937 202.000,355.260 202.000 C 354.709 202.000,354.763 200.471,355.429 197.235 C 355.637 196.225,355.550 195.753,355.096 195.420 C 354.138 194.720,353.795 185.030,354.741 185.411 C 355.559 185.741,356.304 185.927,355.900 185.701 C 355.735 185.609,355.600 159.999,355.600 128.790 C 355.600 91.393,355.464 71.963,355.200 71.800 C 354.980 71.664,354.800 71.021,354.800 70.371 C 354.800 69.721,354.636 68.877,354.435 68.495 C 354.235 68.113,353.417 66.420,352.618 64.734 C 351.818 63.048,350.902 61.451,350.582 61.185 C 350.262 60.919,350.000 60.492,350.000 60.234 C 350.000 59.648,346.725 56.400,346.134 56.400 C 345.894 56.400,345.458 56.111,345.165 55.758 C 344.873 55.405,344.265 54.953,343.816 54.753 C 343.367 54.554,342.460 54.068,341.800 53.675 C 339.980 52.590,336.000 51.176,336.000 51.614 M198.711 89.893 C 199.651 89.978,201.091 89.977,201.911 89.891 C 202.730 89.805,201.960 89.736,200.200 89.737 C 198.440 89.739,197.770 89.809,198.711 89.893 M193.600 90.400 C 193.067 90.745,193.067 90.788,193.600 90.788 C 193.930 90.788,194.470 90.613,194.800 90.400 C 195.333 90.055,195.333 90.012,194.800 90.012 C 194.470 90.012,193.930 90.187,193.600 90.400 M205.600 90.400 C 205.930 90.613,206.560 90.778,207.000 90.766 L 207.800 90.744 207.000 90.400 C 205.804 89.886,204.805 89.886,205.600 90.400 M185.500 93.829 C 184.895 94.157,184.400 94.510,184.400 94.613 C 184.400 94.999,185.032 94.757,186.000 94.000 C 187.189 93.070,187.011 93.009,185.500 93.829 M213.800 93.506 C 214.368 94.101,217.263 95.670,217.449 95.484 C 217.534 95.399,216.658 94.825,215.502 94.209 C 214.346 93.592,213.580 93.276,213.800 93.506 M179.400 97.200 C 178.740 97.637,178.380 97.992,178.600 97.988 C 179.001 97.982,181.176 96.423,180.800 96.412 C 180.690 96.408,180.060 96.763,179.400 97.200 M219.800 96.694 C 220.020 96.915,222.540 98.311,225.400 99.795 C 228.260 101.279,230.420 102.311,230.200 102.087 C 229.980 101.863,227.460 100.467,224.600 98.986 C 221.740 97.504,219.580 96.473,219.800 96.694 M173.900 100.026 C 172.635 100.679,171.600 101.303,171.600 101.412 C 171.600 101.522,172.680 101.066,174.000 100.400 C 175.320 99.734,176.400 99.101,176.400 98.994 C 176.400 98.728,176.474 98.697,173.900 100.026 M167.800 103.227 C 167.140 103.650,166.780 103.996,167.000 103.995 C 167.220 103.995,167.940 103.637,168.600 103.200 C 169.260 102.763,169.620 102.417,169.400 102.432 C 169.180 102.447,168.460 102.804,167.800 103.227 M235.600 104.979 C 235.600 105.089,236.140 105.459,236.800 105.800 C 237.460 106.141,238.000 106.331,238.000 106.221 C 238.000 106.111,237.460 105.741,236.800 105.400 C 236.140 105.059,235.600 104.869,235.600 104.979 M149.900 112.629 C 149.295 112.957,148.800 113.310,148.800 113.413 C 148.800 113.799,149.432 113.557,150.400 112.800 C 151.589 111.870,151.411 111.809,149.900 112.629 M251.000 113.141 C 251.220 113.368,253.380 114.577,255.800 115.828 C 258.220 117.080,260.020 117.924,259.800 117.704 C 259.580 117.484,257.420 116.275,255.000 115.017 C 252.580 113.759,250.780 112.915,251.000 113.141 M145.100 115.227 C 144.275 115.663,143.600 116.108,143.600 116.218 C 143.600 116.327,144.320 116.049,145.200 115.600 C 146.080 115.151,146.800 114.697,146.800 114.592 C 146.800 114.330,146.797 114.331,145.100 115.227 M137.100 119.429 C 135.605 120.240,135.696 120.578,137.200 119.800 C 137.860 119.459,138.400 119.094,138.400 118.990 C 138.400 118.732,138.357 118.747,137.100 119.429 M262.000 118.962 C 262.000 119.087,263.260 119.824,264.800 120.600 C 266.340 121.376,267.600 121.920,267.600 121.811 C 267.600 121.701,266.475 121.025,265.100 120.309 C 261.951 118.667,262.000 118.689,262.000 118.962 M280.410 128.675 C 280.420 129.017,284.052 130.881,284.275 130.659 C 284.346 130.588,283.503 130.039,282.402 129.440 C 281.301 128.840,280.404 128.496,280.410 128.675 M113.500 131.877 C 112.456 132.458,111.663 132.997,111.740 133.073 C 111.900 133.234,115.600 131.214,115.600 130.966 C 115.600 130.715,115.543 130.740,113.500 131.877 M284.800 130.988 C 284.800 131.098,285.880 131.734,287.200 132.400 C 288.520 133.066,289.600 133.522,289.600 133.412 C 289.600 133.302,288.520 132.666,287.200 132.000 C 285.880 131.334,284.800 130.878,284.800 130.988 M290.400 133.987 C 291.328 134.679,297.200 137.634,297.200 137.409 C 297.200 137.299,295.715 136.444,293.900 135.508 C 290.317 133.661,289.471 133.293,290.400 133.987 M303.200 140.767 C 304.163 141.552,304.800 141.808,304.800 141.410 C 304.800 141.306,304.215 140.935,303.500 140.586 L 302.200 139.952 303.200 140.767 M310.800 144.767 C 311.763 145.552,312.400 145.808,312.400 145.410 C 312.400 145.306,311.815 144.935,311.100 144.586 L 309.800 143.952 310.800 144.767 M312.800 145.774 C 312.800 145.856,314.099 146.596,315.688 147.418 C 320.924 150.127,321.388 150.423,322.700 151.885 C 325.597 155.112,324.177 158.308,318.542 161.246 C 317.016 162.041,314.425 163.410,312.784 164.287 C 311.143 165.164,308.270 166.663,306.400 167.617 C 303.456 169.120,300.295 171.200,300.957 171.200 C 301.077 171.200,301.856 170.812,302.688 170.337 C 304.432 169.342,309.869 166.457,316.200 163.167 C 323.556 159.344,325.657 156.826,324.266 153.497 C 323.764 152.295,320.679 149.200,319.983 149.200 C 319.833 149.200,318.459 148.512,316.930 147.671 C 314.061 146.094,312.800 145.515,312.800 145.774 M84.600 147.200 C 83.940 147.637,83.580 147.992,83.800 147.988 C 84.201 147.982,86.376 146.423,86.000 146.412 C 85.890 146.408,85.260 146.763,84.600 147.200 M78.167 151.029 L 76.600 152.458 78.300 151.162 C 79.853 149.978,80.232 149.600,79.867 149.600 C 79.793 149.600,79.028 150.243,78.167 151.029 M76.000 156.196 C 76.000 156.330,76.270 156.961,76.600 157.599 C 77.553 159.442,78.448 160.017,89.200 165.697 C 91.070 166.684,94.034 168.257,95.787 169.192 C 97.540 170.127,98.736 170.604,98.445 170.254 C 98.154 169.903,97.440 169.375,96.858 169.079 C 95.334 168.305,86.777 163.801,82.838 161.699 C 79.339 159.833,76.800 157.840,76.800 156.959 C 76.800 156.678,76.620 156.336,76.400 156.200 C 76.180 156.064,76.000 156.062,76.000 156.196 M297.490 172.668 C 296.000 173.463,294.842 174.175,294.917 174.250 C 295.080 174.413,300.400 171.622,300.400 171.373 C 300.400 171.115,300.412 171.110,297.490 172.668 M291.100 176.027 C 290.275 176.463,289.600 176.908,289.600 177.018 C 289.600 177.127,290.320 176.849,291.200 176.400 C 292.080 175.951,292.800 175.497,292.800 175.392 C 292.800 175.130,292.797 175.131,291.100 176.027 M285.511 178.960 C 283.416 180.205,283.084 180.663,285.000 179.665 C 287.005 178.620,287.919 178.003,287.400 178.044 C 287.180 178.061,286.330 178.474,285.511 178.960 M116.000 179.779 C 116.000 179.889,116.540 180.259,117.200 180.600 C 117.860 180.941,118.400 181.131,118.400 181.021 C 118.400 180.911,117.860 180.541,117.200 180.200 C 116.540 179.859,116.000 179.669,116.000 179.779 M123.600 183.779 C 123.600 183.889,124.140 184.259,124.800 184.600 C 125.460 184.941,126.000 185.131,126.000 185.021 C 126.000 184.911,125.460 184.541,124.800 184.200 C 124.140 183.859,123.600 183.669,123.600 183.779 M275.500 184.229 C 274.005 185.040,274.096 185.378,275.600 184.600 C 276.260 184.259,276.800 183.894,276.800 183.790 C 276.800 183.532,276.757 183.547,275.500 184.229 M357.400 187.600 C 358.032 188.260,358.413 188.800,358.246 188.800 C 358.080 188.800,358.614 189.432,359.433 190.205 C 361.572 192.222,361.682 191.532,359.575 189.318 C 358.599 188.293,357.588 187.216,357.329 186.927 C 357.069 186.637,356.721 186.400,356.554 186.400 C 356.387 186.400,356.768 186.940,357.400 187.600 M267.900 188.229 C 266.405 189.040,266.496 189.378,268.000 188.600 C 268.660 188.259,269.200 187.894,269.200 187.790 C 269.200 187.532,269.157 187.547,267.900 188.229 M264.889 189.865 C 264.168 190.220,263.643 190.577,263.724 190.657 C 263.895 190.828,266.400 189.624,266.400 189.371 C 266.400 189.129,266.347 189.146,264.889 189.865 M261.500 191.627 C 260.675 192.063,260.000 192.508,260.000 192.618 C 260.000 192.727,260.720 192.449,261.600 192.000 C 262.480 191.551,263.200 191.097,263.200 190.992 C 263.200 190.730,263.197 190.731,261.500 191.627 M255.911 194.560 C 253.816 195.805,253.484 196.263,255.400 195.265 C 257.405 194.220,258.319 193.603,257.800 193.644 C 257.580 193.661,256.730 194.074,255.911 194.560 M250.200 197.627 C 249.540 198.050,249.180 198.396,249.400 198.395 C 249.620 198.395,250.340 198.037,251.000 197.600 C 251.660 197.163,252.020 196.817,251.800 196.832 C 251.580 196.847,250.860 197.204,250.200 197.627 M247.500 199.029 C 246.005 199.840,246.096 200.178,247.600 199.400 C 248.260 199.059,248.800 198.694,248.800 198.590 C 248.800 198.332,248.757 198.347,247.500 199.029 M95.882 201.275 C 93.653 202.482,94.335 202.579,96.842 201.412 C 98.029 200.860,98.640 200.418,98.200 200.431 C 97.760 200.443,96.717 200.823,95.882 201.275 M302.000 200.689 C 302.330 200.813,304.715 201.970,307.300 203.261 C 309.885 204.551,312.000 205.527,312.000 205.430 C 312.000 205.045,302.852 200.402,302.150 200.432 C 301.583 200.455,301.546 200.518,302.000 200.689 M92.400 203.233 L 91.400 204.048 92.700 203.414 C 93.415 203.065,94.000 202.694,94.000 202.590 C 94.000 202.192,93.363 202.448,92.400 203.233 M239.900 203.029 C 238.405 203.840,238.496 204.178,240.000 203.400 C 240.660 203.059,241.200 202.694,241.200 202.590 C 241.200 202.332,241.157 202.347,239.900 203.029 M295.090 203.868 C 293.600 204.663,292.442 205.375,292.517 205.450 C 292.680 205.613,298.000 202.822,298.000 202.573 C 298.000 202.315,298.012 202.310,295.090 203.868 M162.400 204.179 C 162.400 204.289,162.940 204.659,163.600 205.000 C 164.260 205.341,164.800 205.531,164.800 205.421 C 164.800 205.311,164.260 204.941,163.600 204.600 C 162.940 204.259,162.400 204.069,162.400 204.179 M236.600 204.800 C 235.036 205.836,235.592 205.837,237.290 204.801 C 238.011 204.362,238.420 204.004,238.200 204.004 C 237.980 204.005,237.260 204.363,236.600 204.800 M110.000 206.584 C 110.000 206.694,110.720 207.151,111.600 207.600 C 112.480 208.049,113.200 208.326,113.200 208.216 C 113.200 208.106,112.480 207.649,111.600 207.200 C 110.720 206.751,110.000 206.474,110.000 206.584 M231.900 207.227 C 231.075 207.663,230.400 208.108,230.400 208.218 C 230.400 208.327,231.120 208.049,232.000 207.600 C 232.880 207.151,233.600 206.697,233.600 206.592 C 233.600 206.330,233.597 206.331,231.900 207.227 M288.700 207.227 C 287.875 207.663,287.200 208.108,287.200 208.218 C 287.200 208.327,287.920 208.049,288.800 207.600 C 289.680 207.151,290.400 206.697,290.400 206.592 C 290.400 206.330,290.397 206.331,288.700 207.227 M168.400 207.384 C 168.400 207.494,169.120 207.951,170.000 208.400 C 170.880 208.849,171.600 209.126,171.600 209.016 C 171.600 208.906,170.880 208.449,170.000 208.000 C 169.120 207.551,168.400 207.274,168.400 207.384 M315.600 207.396 C 315.600 207.670,318.049 208.884,318.232 208.701 C 318.319 208.614,317.762 208.244,316.995 207.878 C 316.228 207.512,315.600 207.295,315.600 207.396 M227.902 209.304 C 227.079 209.763,226.473 210.206,226.555 210.289 C 226.686 210.420,229.512 208.985,229.967 208.557 C 230.414 208.135,229.236 208.562,227.902 209.304 M116.000 209.784 C 116.000 209.894,116.720 210.351,117.600 210.800 C 118.480 211.249,119.200 211.526,119.200 211.416 C 119.200 211.306,118.480 210.849,117.600 210.400 C 116.720 209.951,116.000 209.674,116.000 209.784 M282.700 210.427 C 281.875 210.863,281.200 211.308,281.200 211.418 C 281.200 211.527,281.920 211.249,282.800 210.800 C 283.680 210.351,284.400 209.897,284.400 209.792 C 284.400 209.530,284.397 209.531,282.700 210.427 M320.787 210.288 C 321.329 210.680,322.299 211.540,322.943 212.200 C 323.686 212.963,323.959 213.107,323.693 212.596 C 323.168 211.587,322.095 210.639,320.800 210.040 L 319.800 209.577 320.787 210.288 M78.073 211.218 C 76.864 212.344,75.839 213.972,76.146 214.279 C 76.286 214.419,76.400 214.324,76.400 214.068 C 76.400 213.812,77.051 212.882,77.847 212.001 C 79.394 210.288,79.513 209.876,78.073 211.218 M174.400 210.584 C 174.400 210.694,175.120 211.151,176.000 211.600 C 176.880 212.049,177.600 212.326,177.600 212.216 C 177.600 212.106,176.880 211.649,176.000 211.200 C 175.120 210.751,174.400 210.474,174.400 210.584 M122.800 213.379 C 122.800 213.489,123.340 213.859,124.000 214.200 C 124.660 214.541,125.200 214.731,125.200 214.621 C 125.200 214.511,124.660 214.141,124.000 213.800 C 123.340 213.459,122.800 213.269,122.800 213.379 M218.711 214.160 C 216.387 215.541,216.382 215.806,218.700 214.641 C 219.855 214.061,220.800 213.500,220.800 213.393 C 220.800 213.049,220.229 213.258,218.711 214.160 M275.500 214.226 C 274.455 214.770,273.600 215.305,273.600 215.414 C 273.600 215.524,274.500 215.157,275.600 214.600 C 276.700 214.043,277.600 213.500,277.600 213.393 C 277.600 213.129,277.636 213.114,275.500 214.226 M324.025 215.250 C 323.983 218.327,322.803 219.301,313.000 224.356 C 311.460 225.150,310.140 225.935,310.067 226.100 C 309.993 226.265,309.603 226.400,309.200 226.400 C 308.797 226.400,308.407 226.542,308.333 226.715 C 308.260 226.888,307.210 227.510,306.000 228.097 C 303.970 229.081,300.743 231.200,301.274 231.200 C 301.400 231.200,302.920 230.419,304.651 229.464 C 306.383 228.509,310.320 226.409,313.400 224.798 C 316.480 223.186,319.630 221.529,320.400 221.115 C 323.398 219.506,325.245 216.372,324.414 214.305 C 324.115 213.561,324.046 213.729,324.025 215.250 M76.000 216.652 C 76.000 218.569,78.445 220.288,89.000 225.793 C 91.860 227.285,95.370 229.136,96.800 229.907 C 98.274 230.701,99.054 230.979,98.600 230.549 C 98.160 230.133,96.360 229.049,94.600 228.141 C 92.840 227.233,90.230 225.886,88.800 225.147 C 87.370 224.409,86.110 223.710,86.000 223.594 C 85.890 223.479,84.540 222.760,83.000 221.996 C 81.460 221.233,79.994 220.427,79.742 220.205 C 79.490 219.982,78.725 219.352,78.042 218.804 C 77.359 218.257,76.800 217.592,76.800 217.328 C 76.800 217.064,76.620 216.736,76.400 216.600 C 76.180 216.464,76.000 216.487,76.000 216.652 M211.600 218.000 C 210.830 218.422,210.344 218.774,210.520 218.783 C 210.944 218.805,213.200 217.632,213.200 217.390 C 213.200 217.128,213.177 217.137,211.600 218.000 M267.059 218.646 C 265.552 219.419,264.394 220.127,264.486 220.219 C 264.669 220.403,270.000 217.652,270.000 217.373 C 270.000 217.130,270.086 217.092,267.059 218.646 M133.600 218.979 C 133.600 219.089,134.140 219.459,134.800 219.800 C 135.460 220.141,136.000 220.331,136.000 220.221 C 136.000 220.111,135.460 219.741,134.800 219.400 C 134.140 219.059,133.600 218.869,133.600 218.979 M193.200 219.982 C 193.530 220.205,194.145 220.391,194.567 220.394 C 195.590 220.402,195.271 220.173,193.800 219.844 C 192.924 219.648,192.762 219.685,193.200 219.982 M206.000 220.000 C 205.196 220.257,205.157 220.323,205.800 220.332 C 206.240 220.338,206.960 220.189,207.400 220.000 C 208.419 219.562,207.368 219.562,206.000 220.000 M198.313 220.695 C 199.476 220.776,201.276 220.776,202.313 220.693 C 203.351 220.611,202.400 220.545,200.200 220.546 C 198.000 220.547,197.151 220.614,198.313 220.695 M257.200 223.852 C 254.450 225.298,252.020 226.664,251.800 226.888 C 251.339 227.356,261.606 222.075,262.180 221.548 C 262.880 220.907,262.227 221.209,257.200 223.852 M145.200 225.222 C 146.233 225.926,148.800 227.225,148.800 227.042 C 148.800 226.833,145.205 224.797,144.850 224.806 C 144.712 224.809,144.870 224.996,145.200 225.222 M247.511 228.960 C 245.416 230.205,245.084 230.663,247.000 229.665 C 249.005 228.620,249.919 228.003,249.400 228.044 C 249.180 228.061,248.330 228.474,247.511 228.960 M299.500 231.829 C 298.005 232.640,298.096 232.978,299.600 232.200 C 300.260 231.859,300.800 231.494,300.800 231.390 C 300.800 231.132,300.757 231.147,299.500 231.829 M101.200 232.187 C 101.200 232.297,102.100 232.843,103.200 233.400 C 104.300 233.957,105.200 234.323,105.200 234.213 C 105.200 234.103,104.300 233.557,103.200 233.000 C 102.100 232.443,101.200 232.077,101.200 232.187 M239.100 233.425 C 237.615 234.187,236.400 234.901,236.400 235.011 C 236.400 235.120,237.660 234.576,239.200 233.800 C 240.740 233.024,242.000 232.302,242.000 232.195 C 242.000 231.927,242.112 231.879,239.100 233.425 M161.600 233.779 C 161.600 233.889,162.140 234.259,162.800 234.600 C 163.460 234.941,164.000 235.131,164.000 235.021 C 164.000 234.911,163.460 234.541,162.800 234.200 C 162.140 233.859,161.600 233.669,161.600 233.779 M108.800 236.179 C 108.800 236.289,109.340 236.659,110.000 237.000 C 110.660 237.341,111.200 237.531,111.200 237.421 C 111.200 237.311,110.660 236.941,110.000 236.600 C 109.340 236.259,108.800 236.069,108.800 236.179 M290.300 236.629 C 288.805 237.440,288.896 237.778,290.400 237.000 C 291.060 236.659,291.600 236.294,291.600 236.190 C 291.600 235.932,291.557 235.947,290.300 236.629 M169.200 237.784 C 169.200 237.894,169.920 238.351,170.800 238.800 C 171.680 239.249,172.400 239.526,172.400 239.416 C 172.400 239.306,171.680 238.849,170.800 238.400 C 169.920 237.951,169.200 237.674,169.200 237.784 M229.900 238.229 C 228.405 239.040,228.496 239.378,230.000 238.600 C 230.660 238.259,231.200 237.894,231.200 237.790 C 231.200 237.532,231.157 237.547,229.900 238.229 M226.889 239.865 C 226.168 240.220,225.643 240.577,225.724 240.657 C 225.895 240.828,228.400 239.624,228.400 239.371 C 228.400 239.129,228.347 239.146,226.889 239.865 M281.905 241.090 C 279.982 242.109,278.473 243.006,278.549 243.083 C 278.709 243.242,284.802 240.096,285.380 239.555 C 286.027 238.951,285.517 239.176,281.905 241.090 M116.400 240.184 C 116.400 240.294,117.120 240.751,118.000 241.200 C 118.880 241.649,119.600 241.926,119.600 241.816 C 119.600 241.706,118.880 241.249,118.000 240.800 C 117.120 240.351,116.400 240.074,116.400 240.184 M223.500 241.627 C 222.675 242.063,222.000 242.508,222.000 242.618 C 222.000 242.727,222.720 242.449,223.600 242.000 C 224.480 241.551,225.200 241.097,225.200 240.992 C 225.200 240.730,225.197 240.731,223.500 241.627 M276.300 244.027 C 275.475 244.463,274.800 244.908,274.800 245.018 C 274.800 245.127,275.520 244.849,276.400 244.400 C 277.280 243.951,278.000 243.497,278.000 243.392 C 278.000 243.130,277.997 243.131,276.300 244.027 M217.911 244.560 C 215.816 245.805,215.484 246.263,217.400 245.265 C 219.405 244.220,220.319 243.603,219.800 243.644 C 219.580 243.661,218.730 244.074,217.911 244.560 M182.400 244.820 C 183.787 245.761,184.578 246.035,183.600 245.236 C 183.050 244.786,182.420 244.417,182.200 244.415 C 181.980 244.413,182.070 244.596,182.400 244.820 M270.711 246.960 C 268.616 248.205,268.284 248.663,270.200 247.665 C 272.205 246.620,273.119 246.003,272.600 246.044 C 272.380 246.061,271.530 246.474,270.711 246.960 M129.200 246.987 C 129.200 247.097,130.100 247.643,131.200 248.200 C 132.300 248.757,133.200 249.123,133.200 249.013 C 133.200 248.903,132.300 248.357,131.200 247.800 C 130.100 247.243,129.200 246.877,129.200 246.987 M195.200 250.393 C 196.188 250.716,199.489 250.935,199.167 250.656 C 199.075 250.576,197.920 250.411,196.600 250.288 C 195.109 250.149,194.579 250.189,195.200 250.393 M202.400 250.400 L 200.600 250.680 202.400 250.700 C 203.390 250.711,204.650 250.576,205.200 250.400 L 206.200 250.080 205.200 250.100 C 204.650 250.111,203.390 250.246,202.400 250.400 M261.500 251.826 C 260.455 252.370,259.600 252.905,259.600 253.014 C 259.600 253.124,260.500 252.757,261.600 252.200 C 262.700 251.643,263.600 251.100,263.600 250.993 C 263.600 250.729,263.636 250.714,261.500 251.826 M138.400 251.779 C 138.400 251.889,138.940 252.259,139.600 252.600 C 140.260 252.941,140.800 253.131,140.800 253.021 C 140.800 252.911,140.260 252.541,139.600 252.200 C 138.940 251.859,138.400 251.669,138.400 251.779 M253.090 256.268 C 251.600 257.063,250.442 257.775,250.517 257.850 C 250.680 258.013,256.000 255.222,256.000 254.973 C 256.000 254.715,256.012 254.710,253.090 256.268 M151.600 258.786 C 152.533 259.481,156.800 261.636,156.800 261.412 C 156.800 261.302,155.675 260.625,154.300 259.909 C 151.509 258.454,150.707 258.120,151.600 258.786 M159.200 262.820 C 160.587 263.761,161.378 264.035,160.400 263.236 C 159.850 262.786,159.220 262.417,159.000 262.415 C 158.780 262.413,158.870 262.596,159.200 262.820 M240.300 263.029 C 238.805 263.840,238.896 264.178,240.400 263.400 C 241.060 263.059,241.600 262.694,241.600 262.590 C 241.600 262.332,241.557 262.347,240.300 263.029 M233.500 266.626 C 232.455 267.170,231.600 267.705,231.600 267.814 C 231.600 267.924,232.500 267.557,233.600 267.000 C 234.700 266.443,235.600 265.900,235.600 265.793 C 235.600 265.529,235.636 265.514,233.500 266.626 M225.059 271.046 C 223.552 271.819,222.394 272.527,222.486 272.619 C 222.669 272.803,228.000 270.052,228.000 269.773 C 228.000 269.530,228.086 269.492,225.059 271.046 M214.322 276.707 C 211.969 277.955,210.107 279.040,210.184 279.118 C 210.343 279.277,217.995 275.300,218.580 274.754 C 219.246 274.134,218.694 274.386,214.322 276.707 M189.200 278.631 C 189.200 278.901,191.278 279.656,191.476 279.457 C 191.567 279.367,191.092 279.101,190.420 278.867 C 189.749 278.633,189.200 278.527,189.200 278.631 M206.800 280.000 C 206.005 280.514,207.004 280.514,208.200 280.000 L 209.000 279.656 208.200 279.634 C 207.760 279.622,207.130 279.787,206.800 280.000 M196.201 280.870 C 198.205 281.226,201.648 281.224,204.000 280.867 C 205.127 280.696,203.705 280.593,200.201 280.590 C 196.775 280.588,195.222 280.697,196.201 280.870 M189.630 361.489 C 190.963 362.985,191.735 363.564,192.099 363.339 C 192.442 363.127,191.448 362.000,190.917 362.000 C 190.730 362.000,190.317 361.640,190.000 361.200 C 189.683 360.760,189.252 360.400,189.042 360.400 C 188.832 360.400,189.097 360.890,189.630 361.489 " stroke="none" fill="#794c76" fill-rule="evenodd"></path></g></svg>